<?xml version="1.0" standalone="no"?>
<!DOCTYPE svg PUBLIC "-//W3C//DTD SVG 20010904//EN"
 "http://www.w3.org/TR/2001/REC-SVG-20010904/DTD/svg10.dtd">
<svg version="1.0" xmlns="http://www.w3.org/2000/svg"
 width="1024.000000pt" height="1024.000000pt" viewBox="0 0 1024.000000 1024.000000"
 preserveAspectRatio="xMidYMid meet">

<g transform="translate(0.000000,1024.000000) scale(0.100000,-0.100000)"
fill="#000000" stroke="none">
<path d="M2985 9089 c-362 -7 -416 -12 -599 -55 -506 -121 -922 -445 -1146
-893 -111 -222 -166 -443 -180 -725 -12 -234 -12 -4473 0 -4716 13 -265 54
-443 150 -647 265 -563 753 -910 1370 -973 157 -16 4926 -16 5086 0 789 79
1397 682 1483 1472 8 66 11 874 11 2512 0 2602 1 2524 -51 2728 -46 184 -159
423 -274 583 -289 402 -740 656 -1255 704 -129 13 -3997 20 -4595 10z m695
-330 c13 -47 0 -107 -29 -133 -22 -20 -74 -33 -108 -28 -19 3 -83 77 -83 95 0
3 17 -3 38 -13 68 -33 86 -34 120 -5 37 31 42 55 25 115 -16 58 -16 60 7 32
11 -13 24 -41 30 -63z m2870 47 c-18 -49 -12 -105 15 -131 13 -14 34 -25 46
-25 29 0 100 21 118 34 23 18 -13 -45 -39 -69 -33 -30 -104 -25 -141 11 -53
51 -57 121 -11 192 19 29 26 23 12 -12z m-3458 -68 c32 -64 38 -192 9 -250
-34 -72 -77 -115 -149 -150 -58 -29 -76 -33 -142 -32 -91 0 -139 22 -199 90
-53 60 -53 76 1 30 51 -44 133 -76 197 -76 65 0 160 48 205 103 54 66 69 114
63 204 -2 43 -8 88 -12 101 -12 36 3 25 27 -20z m4037 10 c-15 -55 -11 -154
10 -208 28 -74 61 -112 129 -148 79 -42 97 -42 112 4 28 85 140 164 230 163
l45 0 -40 -21 c-48 -24 -102 -73 -121 -110 -19 -36 -19 -35 20 -42 37 -7 62
-29 51 -46 -3 -5 -30 -10 -58 -10 -64 0 -92 -18 -114 -71 -13 -34 -19 -39 -47
-39 -37 0 -151 -34 -172 -50 -33 -28 -10 10 50 81 l63 75 -54 29 c-92 48 -143
128 -151 236 -5 67 7 123 34 167 20 31 24 28 13 -10z m-1744 -7 c395 -81 817
-410 995 -776 61 -124 77 -190 23 -90 -126 232 -268 406 -435 533 -93 70 -206
137 -216 127 -3 -3 -3 -6 -1 -8 110 -86 211 -172 219 -187 8 -16 6 -22 -15
-36 -35 -23 -185 -44 -265 -38 l-65 4 71 -20 c111 -31 242 -80 262 -98 10 -10
12 -13 5 -8 -7 4 -20 6 -28 2 -9 -3 -13 -2 -10 4 4 6 -17 10 -55 10 -59 0 -60
0 -54 -25 10 -40 -32 -43 -91 -6 -55 35 -80 41 -44 11 13 -11 29 -24 36 -30 7
-5 16 -10 22 -10 5 0 12 -7 15 -16 6 -15 9 -84 3 -84 -1 0 -18 4 -36 10 -19 5
-30 6 -25 1 5 -5 68 -28 139 -51 138 -46 370 -153 379 -175 3 -9 -27 0 -77 22
-133 57 -165 68 -307 111 -227 69 -399 96 -455 72 -18 -8 -18 -9 5 -10 16 -2
10 -5 -20 -11 -60 -12 -470 -20 -470 -9 0 5 6 10 13 13 15 5 -43 8 -146 8
-117 0 -352 -56 -542 -130 -38 -15 -90 -34 -115 -43 -25 -8 -54 -18 -65 -22
l-20 -8 20 17 c48 40 235 122 403 177 66 21 76 28 40 26 -13 0 -34 0 -48 1
-20 1 -22 3 -10 11 12 7 12 12 3 21 -10 10 -9 17 4 31 13 15 15 23 6 36 -13
21 -95 24 -138 5 -26 -11 -25 -8 15 27 24 22 48 40 52 40 4 0 7 5 5 12 -2 11
57 35 178 72 l50 16 -70 -5 c-54 -3 -79 0 -112 15 -48 21 -77 65 -62 93 7 12
6 17 -2 17 -7 0 -4 7 7 16 10 8 12 12 4 8 -21 -9 70 79 103 101 53 34 18 26
-49 -11 -158 -88 -326 -243 -436 -401 -56 -80 -158 -253 -158 -269 0 -5 -8
-18 -16 -29 -16 -19 -16 -19 -9 5 14 50 79 186 119 250 240 385 634 647 1048
700 109 13 308 5 423 -19z m-3067 -72 c30 -72 27 -191 -7 -259 -27 -52 -84
-115 -123 -136 -15 -8 -36 -33 -46 -57 -57 -124 -205 -184 -357 -142 -36 9
-68 22 -71 27 -3 5 -29 -15 -57 -45 -58 -61 -112 -87 -182 -87 -25 0 -45 3
-45 6 0 27 39 63 92 84 75 30 144 79 169 119 17 28 22 30 40 20 11 -6 59 -13
106 -16 80 -5 88 -3 149 27 114 56 157 156 120 282 -20 69 -20 73 -1 54 20
-19 65 -116 65 -138 0 -28 14 -21 57 25 64 69 71 108 49 270 -6 45 16 27 42
-34z m5608 9 c-33 -122 5 -237 95 -283 27 -14 29 -14 29 2 0 33 20 91 40 115
19 23 19 23 13 -52 -10 -138 40 -219 163 -266 53 -20 164 -15 214 10 40 19 40
19 40 3 0 -42 94 -124 182 -158 49 -18 78 -47 78 -76 0 -3 -29 -3 -64 -1 -83
7 -139 38 -182 103 -19 27 -34 45 -34 38 0 -6 -30 -21 -66 -33 -152 -51 -327
21 -365 150 -10 32 -19 42 -47 51 -50 17 -116 86 -135 144 -19 54 -23 179 -7
220 18 49 58 77 46 33z m-3983 -28 c5 0 6 8 3 17 -6 15 -5 16 11 1 10 -9 27
-18 38 -21 14 -4 11 -5 -10 -6 -16 -1 -50 -4 -74 -7 l-45 -6 25 29 c22 28 25
29 33 12 5 -11 13 -19 19 -19z m8 -228 c-45 -58 -57 -66 -65 -45 -4 9 -1 22 6
29 11 11 77 51 86 53 2 1 -10 -16 -27 -37z m2884 -93 c-11 -47 3 -96 37 -134
25 -30 37 -35 72 -35 23 0 46 -4 52 -10 6 -6 23 -3 49 11 22 12 36 17 30 12
-5 -4 -28 -24 -50 -43 -21 -19 -33 -28 -27 -18 8 10 9 18 3 22 -5 4 -13 2 -16
-4 -5 -8 -11 -8 -20 0 -10 8 -20 4 -41 -15 -23 -20 -25 -24 -9 -20 11 3 1 -4
-22 -16 -32 -17 -43 -29 -48 -55 -3 -19 -2 -42 4 -52 7 -13 5 -24 -8 -41 l-18
-24 -20 20 c-19 19 -26 20 -74 11 -30 -5 -86 -20 -126 -33 l-72 -23 37 45 c44
53 90 83 126 83 19 0 26 5 26 19 0 14 12 22 44 30 25 6 54 11 66 11 18 0 15 6
-21 40 -41 39 -41 40 -37 98 3 40 13 73 31 105 32 55 41 59 32 16z m-3595
-146 c39 -11 66 -26 92 -54 20 -21 40 -34 43 -29 16 26 72 -6 110 -64 19 -28
13 -48 -7 -28 -17 17 -122 15 -163 -3 -34 -13 -35 -13 -25 5 5 10 10 28 10 39
0 25 -65 78 -155 126 l-70 37 55 -7 c30 -3 80 -13 110 -22z m3710 -73 c0 -5
-2 -10 -4 -10 -3 0 -8 5 -11 10 -3 6 -1 10 4 10 6 0 11 -4 11 -10z m-4187 -25
c124 -32 247 -118 318 -222 40 -57 36 -64 -6 -13 -100 119 -258 192 -420 194
-138 1 -267 -44 -360 -126 -43 -38 -47 -39 -28 -12 57 81 176 158 281 183 59
14 153 12 215 -4z m4936 -5 c40 -11 98 -37 129 -56 61 -38 142 -112 142 -128
0 -5 -12 2 -27 16 -45 42 -108 76 -190 105 -105 36 -246 38 -343 4 -84 -29
-187 -98 -246 -164 -53 -59 -50 -49 11 38 119 168 323 240 524 185z m-3292
-96 c-3 -3 -12 -4 -19 -1 -8 3 -5 6 6 6 11 1 17 -2 13 -5z m1030 0 c-3 -3 -12
-4 -19 -1 -8 3 -5 6 6 6 11 1 17 -2 13 -5z m3016 -47 c-17 -17 -44 -57 -59
-87 -25 -47 -29 -69 -32 -155 -3 -88 -1 -109 22 -170 22 -61 23 -67 6 -45 -51
65 -65 111 -65 210 0 80 4 102 24 140 23 45 121 154 130 145 2 -3 -9 -20 -26
-38z m-6673 -21 c68 -78 95 -157 88 -256 -6 -83 -42 -154 -105 -210 -73 -64
-89 -67 -42 -8 121 152 132 333 30 482 -35 51 -19 47 29 -8z m986 -63 c173
-58 267 -207 247 -393 -6 -58 -5 -58 27 -75 51 -26 378 -232 448 -282 58 -41
62 -47 62 -82 0 -54 27 -191 56 -290 25 -82 25 -106 2 -83 -7 7 -17 12 -22 12
-7 0 -8 -3 -1 -8 6 -4 16 -14 23 -23 10 -14 10 -18 -3 -22 -8 -4 -14 -1 -12 6
1 7 -7 11 -20 10 -14 -2 -22 2 -20 9 1 7 -7 13 -18 14 -26 2 -148 71 -158 90
-5 8 -12 12 -17 9 -5 -3 -64 27 -132 66 -173 101 -388 220 -411 228 -15 6 -30
-2 -61 -30 -53 -49 -118 -81 -178 -87 -59 -6 -63 -22 -5 -23 32 0 37 -2 22 -9
-32 -14 -5 -11 72 7 55 13 70 19 62 29 -7 8 -7 14 1 19 6 4 9 1 8 -7 -2 -7 4
-13 12 -13 8 0 14 6 12 13 -1 8 2 11 9 7 7 -5 3 -15 -12 -31 -12 -13 -24 -22
-27 -20 -2 3 -13 -3 -24 -13 -11 -11 -47 -27 -81 -36 -73 -20 -145 -15 -218
17 -63 26 -141 111 -163 174 -21 61 -20 157 2 211 17 42 61 98 82 105 8 2 7
16 -7 48 -12 31 -18 71 -18 130 0 77 3 92 33 153 38 77 95 131 175 164 65 28
181 31 253 6z m4977 -18 c67 -33 130 -97 160 -163 26 -57 29 -203 5 -266 l-14
-39 41 -43 c68 -70 88 -182 52 -289 -22 -64 -90 -135 -166 -172 -47 -24 -69
-28 -136 -28 -67 1 -89 5 -135 29 -30 15 -63 35 -72 43 -18 16 -15 33 5 33 8
0 7 -3 -2 -9 -11 -7 -10 -11 6 -20 11 -5 24 -7 28 -3 5 4 5 1 1 -5 -4 -8 -1
-13 8 -13 9 0 16 -4 16 -9 0 -13 71 -9 100 6 24 13 24 13 -15 14 l-40 2 35 6
35 7 -29 7 c-55 15 -111 47 -152 87 l-41 40 -37 -18 c-20 -10 -33 -22 -29 -27
4 -4 3 -5 -4 -1 -7 4 -30 -5 -52 -19 -23 -14 -45 -25 -50 -25 -5 0 -14 -7 -21
-15 -7 -8 -37 -27 -69 -42 -69 -34 -310 -170 -331 -187 -22 -19 -92 -58 -110
-61 -8 -2 -24 -6 -35 -10 -14 -5 -16 -4 -6 3 10 7 10 11 1 17 -8 5 -6 11 7 21
31 23 5 15 -39 -12 l-41 -26 6 24 c3 12 17 73 31 133 14 61 29 142 32 182 l7
71 66 49 c79 59 287 193 391 253 l75 44 0 105 c0 121 16 169 80 240 84 92 159
123 290 118 75 -3 100 -8 148 -32z m-2354 -31 c58 -8 113 -21 121 -29 13 -12
70 -30 195 -64 l40 -11 -50 6 c-27 2 -108 12 -180 21 -167 22 -579 24 -753 4
-114 -13 -161 -11 -116 5 10 4 27 15 36 25 49 49 483 76 707 43z m-1384 -34
c-3 -5 -12 -10 -18 -10 -7 0 -6 4 3 10 19 12 23 12 15 0z m-1979 -25 c49 -11
114 -47 114 -64 -1 -39 -16 -44 -56 -17 -33 22 -33 33 -1 27 5 -1 6 3 3 8 -3
5 -16 7 -29 4 -18 -4 -19 -3 -7 6 12 9 8 10 -15 5 -16 -4 -27 -3 -22 1 4 5
-10 16 -30 26 -39 19 -33 19 43 4z m1757 0 c-3 -9 -8 -14 -10 -11 -3 3 -2 9 2
15 9 16 15 13 8 -4z m1514 -96 c221 -18 167 -29 -150 -29 -176 0 -297 4 -297
9 0 9 51 17 150 24 101 7 175 6 297 -4z m113 -308 c41 -5 90 -13 108 -19 23
-8 30 -8 26 0 -8 13 46 2 60 -13 12 -11 16 -7 -74 -59 -249 -144 -342 -410
-226 -646 39 -79 122 -169 193 -211 58 -34 163 -63 228 -63 108 0 231 54 315
139 94 96 140 204 140 336 0 136 -47 250 -145 351 -29 30 -47 54 -40 54 8 0
20 -6 27 -13 7 -8 19 -12 27 -9 8 3 11 0 7 -6 -4 -7 4 -14 21 -18 15 -4 30
-10 33 -13 3 -3 30 -19 60 -35 182 -95 289 -173 291 -213 2 -27 27 92 34 165
4 34 11 65 17 68 27 17 -33 -306 -87 -473 -65 -197 -144 -335 -272 -474 -159
-172 -423 -306 -733 -370 -141 -30 -430 -33 -565 -6 -342 68 -605 199 -777
386 -132 145 -216 302 -282 531 -45 154 -94 441 -71 418 3 -2 12 -47 21 -99
19 -106 33 -152 42 -129 6 16 27 40 36 40 3 0 14 8 24 18 10 9 31 26 46 37 16
11 33 25 40 31 6 6 40 26 76 45 36 19 67 37 68 42 2 4 10 7 18 7 8 0 26 11 39
24 14 14 27 20 30 15 4 -5 14 -5 27 2 29 15 4 31 -37 23 -21 -4 -26 -2 -16 4
12 8 11 11 -5 15 -10 2 1 2 26 0 25 -3 52 -6 60 -7 19 -1 26 17 8 22 -9 2 -8
0 2 -7 13 -10 13 -11 0 -10 -8 0 -24 4 -34 8 -15 6 -3 11 45 20 35 7 73 15 84
18 12 3 7 -4 -12 -16 -56 -35 -168 -158 -197 -214 -55 -110 -71 -244 -42 -354
44 -164 187 -305 347 -342 153 -36 324 25 447 158 45 50 100 165 114 239 15
83 -1 192 -44 281 -39 82 -135 179 -233 236 -43 25 -63 41 -52 43 9 2 17 8 17
13 0 5 24 9 53 10 42 1 47 3 27 10 -17 5 3 7 62 6 47 -1 81 1 75 5 -16 10 428
9 523 -1z m2903 -35 c-3 -13 2 -38 11 -55 17 -31 13 -38 -13 -22 -9 6 -23 4
-38 -6 -22 -14 -23 -14 -23 7 0 24 15 56 38 83 21 24 30 21 25 -7z m-6748 -67
c29 -11 73 -33 98 -50 49 -32 117 -115 117 -142 0 -15 -49 -72 -55 -65 -1 2
-10 18 -19 35 -37 73 -138 159 -263 224 l-58 30 64 -6 c35 -3 87 -15 116 -26z
m4380 11 c3 -5 2 -10 -4 -10 -5 0 -13 5 -16 10 -3 6 -2 10 4 10 5 0 13 -4 16
-10z m90 -9 c19 -8 19 -8 -3 -15 -13 -4 -26 -5 -29 -2 -4 3 0 6 8 7 8 0 6 4
-6 9 -26 11 2 12 30 1z m-4155 -27 c61 -20 87 -42 103 -89 10 -28 20 -41 35
-43 21 -3 24 -7 26 -34 1 -7 -24 -17 -57 -24 -40 -8 -55 -8 -48 -1 15 15 14
53 -4 87 -19 36 -63 71 -135 105 l-55 26 45 -6 c25 -4 65 -13 90 -21z m6980
17 c0 -5 -13 -11 -28 -14 -19 -4 -38 -20 -56 -47 -27 -42 -75 -163 -77 -196
-1 -14 -3 -13 -9 6 -7 23 -8 23 -11 -10 -1 -19 -2 -41 -2 -47 1 -7 -4 -13 -11
-14 -99 -6 -262 -32 -289 -46 -16 -8 -31 -12 -35 -9 -7 8 15 82 40 130 43 85
162 187 258 221 84 31 220 47 220 26z m-2733 -7 c-3 -3 -12 -4 -19 -1 -8 3 -5
6 6 6 11 1 17 -2 13 -5z m53 -8 c0 -2 -7 -7 -16 -10 -8 -3 -12 -2 -9 4 6 10
25 14 25 6z m1260 -186 c0 -5 -5 -10 -11 -10 -5 0 -7 5 -4 10 3 6 8 10 11 10
2 0 4 -4 4 -10z m-5641 -32 c-1 -7 3 -26 9 -41 7 -16 12 -60 12 -98 0 -56 -4
-73 -20 -89 -39 -39 -45 -27 -48 90 -1 64 2 119 8 130 12 22 42 28 39 8z
m5624 -11 c-7 -12 18 -38 30 -30 6 4 7 1 2 -6 -5 -9 -15 -5 -36 15 -16 15 -29
28 -29 29 0 0 9 1 19 1 11 0 17 -4 14 -9z m1112 -137 c15 -7 9 -9 -25 -9 -55
-1 -156 -26 -187 -47 -20 -12 -22 -12 -16 1 16 42 171 80 228 55z m-19 -48
c19 -13 25 -42 8 -42 -24 0 -75 30 -69 40 7 12 45 13 61 2z m-6549 -138 c19
-10 41 -28 50 -40 8 -13 19 -21 25 -18 16 10 54 -5 81 -32 15 -15 27 -29 27
-33 0 -3 -33 -6 -72 -6 -40 0 -86 -4 -102 -8 l-29 -8 17 26 c17 25 17 28 -1
47 -25 28 -83 56 -151 72 l-57 14 88 1 c63 1 99 -4 124 -15z m6468 -210 c199
-44 257 -53 323 -54 113 0 57 -39 -61 -41 -40 -1 -64 -3 -54 -6 14 -4 17 -16
17 -67 0 -74 -9 -128 -20 -121 -10 6 -21 -36 -25 -94 -2 -23 -6 -45 -8 -47 -2
-2 -42 7 -88 21 -203 61 -350 74 -458 41 -30 -9 -57 -16 -59 -16 -3 0 -2 36 2
80 3 44 5 80 3 80 -2 0 -37 -18 -78 -40 -69 -38 -119 -58 -119 -47 0 2 42 32
94 67 89 58 115 83 98 94 -4 2 -45 -11 -91 -30 -46 -19 -92 -34 -103 -32 -18
3 -17 6 10 36 16 17 34 32 40 32 7 0 12 4 12 9 0 5 10 13 22 17 18 5 19 8 5
15 -10 6 -31 4 -59 -6 -161 -59 -209 -70 -208 -47 1 12 301 134 375 153 99 25
109 26 215 28 69 0 128 -6 215 -25z m-775 6 c12 -8 11 -10 -7 -10 -13 0 -23 5
-23 10 0 13 11 13 30 0z m-30 -35 c0 -9 -7 -32 -16 -53 -15 -35 -16 -36 -30
-18 -16 22 -10 55 14 74 21 16 32 15 32 -3z m-223 -10 c-63 -22 -120 -86 -98
-108 20 -20 12 -29 -19 -22 -19 4 -30 3 -30 -4 0 -6 -7 -11 -15 -11 -10 0 -15
10 -15 30 0 34 -40 65 -98 76 -45 9 -26 27 27 26 26 -1 53 -9 72 -23 29 -21
32 -21 41 -5 14 26 87 56 133 55 l40 0 -38 -14z m270 -17 c-3 -7 -5 -2 -5 12
0 14 2 19 5 13 2 -7 2 -19 0 -25z m-5105 -12 c11 -16 10 -66 -2 -66 -5 0 -17
17 -27 38 -9 20 -19 41 -21 46 -6 12 42 -5 50 -18z m-642 -11 c41 -8 129 -35
195 -61 182 -70 290 -104 356 -111 50 -5 60 -9 64 -27 10 -47 45 -262 69 -426
15 -96 28 -191 31 -210 5 -29 3 -33 -7 -20 -28 33 -209 94 -390 130 -52 10
-57 13 -48 30 14 27 13 37 -11 61 -22 22 -19 39 3 22 7 -5 58 -27 113 -48 125
-47 274 -114 298 -134 14 -12 17 -12 17 0 -1 36 -37 153 -50 160 -8 4 -78 38
-154 75 -77 37 -149 75 -160 85 -10 10 -34 23 -53 30 -19 6 -33 17 -34 27 0
13 -3 12 -11 -5 -6 -12 -25 -29 -43 -37 -29 -14 -38 -14 -81 -1 -111 33 -233
129 -279 218 l-29 54 21 36 c14 23 18 37 10 40 -6 2 -3 6 7 10 10 4 15 3 11
-3 -8 -14 5 -12 34 4 14 8 32 12 40 9 13 -4 14 -3 2 5 -8 6 -21 8 -30 4 -17
-6 -16 -4 13 18 13 10 17 10 12 3 -4 -7 -3 -13 3 -13 5 0 13 5 16 11 4 6 14 8
22 5 8 -3 11 -1 8 4 -3 6 0 10 7 10 7 1 -5 8 -27 17 -30 12 -77 15 -195 15
-150 0 -239 -14 -365 -56 -11 -4 -4 2 17 13 60 34 184 63 302 70 126 9 189 6
296 -14z m570 6 c-5 -11 -10 -30 -10 -43 0 -18 -2 -20 -10 -8 -14 21 -12 36 6
54 21 22 27 20 14 -3z m473 -17 c17 -9 39 -25 48 -37 16 -20 16 -20 54 9 34
25 47 29 104 29 48 -1 77 -7 106 -22 l40 -22 -51 -1 c-61 0 -147 -24 -164 -46
-11 -12 -10 -21 3 -50 10 -19 17 -37 17 -39 0 -2 -23 6 -50 17 -45 18 -56 19
-91 9 -23 -7 -43 -11 -45 -8 -2 2 5 16 17 31 l21 27 -23 26 c-30 32 -115 73
-153 73 -36 0 -28 9 16 21 44 11 111 3 151 -17z m5794 -20 c-3 -3 -12 -4 -19
-1 -8 3 -5 6 6 6 11 1 17 -2 13 -5z m-1169 -71 c-63 -414 -115 -703 -125 -703
-17 0 -17 2 11 175 14 83 36 224 51 315 14 91 31 182 36 203 11 43 33 51 27
10z m-5068 -14 c0 -6 -4 -7 -10 -4 -5 3 -10 11 -10 16 0 6 5 7 10 4 6 -3 10
-11 10 -16z m92 -107 c16 -64 26 -100 24 -79 l-5 37 59 0 c151 0 349 -69 502
-175 89 -62 128 -94 128 -106 0 -4 -18 -16 -40 -28 l-40 -21 -89 60 c-111 75
-258 127 -402 143 -87 9 -99 13 -103 31 -13 57 9 -120 35 -277 34 -206 33
-197 15 -197 -9 0 -15 19 -20 58 -3 31 -15 104 -26 162 -11 58 -36 188 -55
290 -30 162 -36 245 -16 225 3 -4 18 -59 33 -123z m4196 34 c215 -36 259 -51
327 -111 l40 -36 -40 17 c-22 9 -65 27 -95 40 -30 12 -107 32 -171 43 -133 22
-245 53 -274 76 -13 9 -14 13 -4 10 8 -3 106 -21 217 -39z m969 38 c-3 -3 -12
-4 -19 -1 -8 3 -5 6 6 6 11 1 17 -2 13 -5z m193 -88 c0 -2 -15 -15 -33 -29
-25 -19 -37 -23 -48 -15 -11 8 -11 9 4 4 9 -3 17 -2 17 2 0 4 12 15 28 24 29
19 32 20 32 14z m-6240 -81 c0 -10 -9 -15 -27 -14 -24 2 -25 2 -5 6 12 2 22 9
22 14 0 5 2 9 5 9 3 0 5 -7 5 -15z m2230 -39 c0 -2 -43 -35 -95 -72 -83 -60
-93 -69 -74 -76 11 -5 25 -5 30 -2 5 3 8 2 7 -3 -1 -4 8 -27 20 -50 12 -23 22
-55 22 -71 0 -31 39 -82 62 -82 9 0 9 3 -2 11 -12 9 -11 10 8 6 15 -4 42 8 85
36 180 118 241 143 222 89 -7 -20 -26 -33 -537 -374 -367 -245 -377 -252 -350
-264 57 -24 102 -100 102 -172 0 -21 -7 -61 -15 -89 l-15 -50 -87 -5 c-57 -4
-108 -14 -143 -28 -30 -12 -68 -24 -83 -26 -16 -2 -34 -7 -40 -11 -8 -4 -7 -1
1 9 11 14 8 19 -25 38 -48 27 -90 81 -104 134 -6 23 -23 56 -37 75 l-26 35
-13 -30 c-11 -26 -12 -27 -13 -6 0 13 -7 30 -16 39 -10 11 -12 19 -5 26 6 6 4
15 -9 26 -20 18 -60 168 -63 239 -2 43 -2 44 61 82 78 47 144 58 225 38 l56
-15 153 101 c292 193 681 442 696 445 1 1 2 -1 2 -3z m4942 -82 c4 -3 8 -12 8
-21 0 -13 -14 -15 -87 -12 -49 2 -91 5 -96 7 -4 2 -2 13 4 24 10 19 17 20 87
14 42 -4 79 -9 84 -12z m-7005 -56 c-3 -8 -6 -5 -6 6 -1 11 2 17 5 13 3 -3 4
-12 1 -19z m-87 -8 c0 -5 -7 -10 -16 -10 -8 0 -12 5 -9 10 3 6 10 10 16 10 5
0 9 -4 9 -10z m374 -33 c44 -24 52 -25 66 -12 18 17 34 20 26 6 -8 -12 4 -42
14 -36 10 6 138 -39 153 -55 17 -18 -71 -4 -115 17 -18 10 -47 17 -65 18 -17
0 -35 4 -40 9 -5 5 -2 6 6 1 9 -5 12 -4 8 2 -4 6 -18 8 -32 6 -13 -3 -30 -3
-37 0 -7 2 -17 4 -21 3 -14 -2 -35 46 -29 66 3 11 8 15 11 10 3 -5 28 -21 55
-35z m4392 -18 c54 -34 113 -70 129 -80 28 -17 28 -19 7 -19 -14 0 -39 -17
-64 -45 -36 -39 -47 -45 -81 -45 -56 0 -100 -25 -126 -70 -24 -43 -37 -48 -80
-26 -51 27 -374 252 -385 269 -30 47 43 26 149 -44 42 -27 81 -47 86 -43 5 3
8 2 7 -3 -2 -4 0 -8 4 -8 3 0 17 -10 30 -21 13 -12 33 -27 45 -33 19 -10 22
-9 17 4 -3 8 -11 12 -17 8 -6 -3 -7 -1 -3 6 6 9 11 9 21 1 10 -9 19 -9 32 0
16 10 15 10 -4 5 -27 -7 -27 -4 -8 53 30 84 86 150 131 152 6 0 55 -28 110
-61z m-4554 -2 c22 4 30 0 47 -28 25 -41 26 -48 6 -55 -20 -8 -152 35 -152 50
0 6 -4 18 -7 27 -6 14 -2 16 36 9 24 -5 55 -6 70 -3z m383 -37 c3 -5 1 -10 -4
-10 -6 0 -11 5 -11 10 0 6 2 10 4 10 3 0 8 -4 11 -10z m3436 -245 c83 -305 81
-296 76 -367 -15 -176 -182 -362 -414 -458 -118 -49 -234 -70 -396 -70 -188 0
-294 23 -447 98 -102 49 -125 66 -200 141 -62 62 -95 106 -120 156 -53 107
-50 175 18 425 29 107 60 215 67 240 l15 45 -6 -65 c-5 -72 -8 -73 51 28 17
29 32 52 36 52 3 0 -12 -84 -33 -187 -49 -247 -49 -252 5 -310 78 -86 128
-128 214 -181 234 -142 549 -146 792 -9 82 46 251 200 270 245 10 23 5 61 -29
226 -22 109 -39 201 -36 203 2 2 7 -9 11 -26 4 -18 13 -31 21 -31 9 0 13 -4
10 -8 -2 -4 4 -13 15 -20 11 -7 19 -8 19 -2 0 5 -3 10 -7 10 -5 0 -6 24 -4 52
l4 53 14 -45 c7 -25 32 -112 54 -195z m-1021 120 c-1 -47 -57 -475 -63 -481
-8 -8 -111 73 -165 128 l-43 44 31 180 c17 98 33 184 35 190 2 8 33 6 104 -9
l101 -21 0 -31z m788 33 c19 -73 62 -302 62 -326 0 -14 -18 -40 -47 -69 -50
-48 -152 -127 -158 -121 -5 6 -58 421 -59 467 l-1 44 90 22 c50 13 93 23 96
24 4 0 11 -18 17 -41z m-268 -269 c16 -140 30 -262 30 -271 0 -11 -13 -23 -32
-31 -42 -18 -167 -41 -175 -33 -4 3 -8 134 -11 290 l-5 283 79 9 c44 6 80 9
82 8 2 -1 16 -116 32 -255z m1420 257 c0 -2 11 -63 25 -136 28 -151 28 -150
16 -150 -12 0 -14 7 -42 143 -21 106 -32 126 -44 87 -8 -26 -63 -84 -93 -100
-17 -8 -32 -9 -54 -1 -44 15 -43 16 -77 -38 -36 -56 -53 -66 -83 -50 l-21 12
22 11 c12 7 38 34 57 61 43 61 55 68 104 60 36 -6 42 -3 99 49 34 31 68 56 76
56 8 0 15 -2 15 -4z m-1699 -22 c3 -2 5 -13 3 -26 -1 -13 -3 -141 -3 -285 -1
-228 -3 -263 -16 -263 -8 0 -56 10 -105 22 -70 16 -90 25 -90 38 0 16 41 367
56 483 l7 48 71 -7 c39 -4 74 -8 77 -10z m1964 -124 l90 -58 60 15 c40 11 75
14 107 9 55 -8 125 -55 131 -88 4 -22 4 -22 6 2 2 29 17 57 26 48 6 -6 -80
-569 -92 -608 -4 -12 -6 -11 -12 4 -4 10 -1 57 5 105 27 189 35 239 49 308 8
40 14 82 14 95 -1 27 -16 -44 -54 -269 -16 -90 -31 -163 -35 -163 -13 0 -34
77 -45 165 -12 101 -23 112 -82 80 -37 -21 -53 -14 -35 15 19 30 15 83 -8 108
-24 26 -38 27 -104 7 -64 -20 -68 -19 -62 8 l6 22 -11 -22 c-12 -22 -65 -48
-73 -35 -2 4 -7 30 -11 57 -4 28 -13 57 -20 65 -11 12 -55 208 -55 243 0 11
86 -37 205 -113z m429 24 c16 -6 13 -48 -4 -68 -12 -12 -32 32 -25 54 7 22 7
22 29 14z m771 -29 c50 -9 176 -38 280 -66 215 -57 216 -57 194 -58 -8 -1 -89
17 -179 39 -89 22 -164 39 -166 37 -2 -1 -8 -77 -15 -167 -6 -91 -15 -169 -20
-174 -4 -5 -4 -17 1 -26 11 -20 1 -130 -12 -130 -5 0 -7 -4 -4 -9 6 -10 -81
-24 -98 -15 -6 3 -2 -2 9 -10 11 -9 37 -21 58 -27 76 -20 27 -20 -102 0 -72
12 -160 21 -196 21 -78 0 -79 1 -73 150 l3 101 -50 -7 c-108 -13 -257 -66
-328 -116 -16 -11 -30 -18 -33 -15 -3 3 2 38 10 78 8 41 18 112 22 159 3 47
10 101 15 121 9 35 11 36 111 68 57 17 135 38 173 45 96 19 291 19 400 1z
m-5495 -35 c0 -32 -16 -36 -37 -10 -20 24 -15 40 12 40 21 0 25 -5 25 -30z
m6185 -22 c-4 -18 -24 -58 -44 -88 -21 -30 -64 -101 -96 -157 -32 -57 -62
-103 -67 -103 -5 0 -6 -6 -2 -12 5 -10 4 -10 -5 -2 -9 9 6 43 64 148 74 134
143 246 152 246 3 0 2 -15 -2 -32z m-1410 -160 c-39 -268 -76 -483 -87 -493
-17 -16 -4 97 42 383 28 165 48 262 55 262 8 0 5 -44 -10 -152z m-5665 88 c10
-25 40 -109 66 -188 38 -117 70 -199 102 -260 2 -5 -8 -8 -21 -8 -23 0 -28 9
-63 113 -48 146 -121 338 -132 349 -9 9 -110 -28 -271 -96 -46 -20 -86 -35
-88 -33 -9 10 339 166 370 167 12 0 24 -15 37 -44z m902 -18 c3 -18 33 -198
67 -399 63 -379 67 -410 52 -394 -9 11 -39 154 -71 345 -85 501 -82 480 -65
480 7 0 15 -14 17 -32z m-337 -48 c50 -11 126 -30 170 -44 44 -13 83 -22 88
-19 4 2 7 16 8 31 1 36 30 -124 79 -436 44 -277 46 -294 25 -242 -16 40 -45
179 -89 429 l-31 175 -92 21 c-51 12 -93 21 -93 19 0 -2 -16 4 -35 12 -19 7
-50 14 -68 14 -19 0 -37 3 -41 7 -8 8 -42 16 -78 17 -16 1 -28 5 -28 10 0 14
-174 -4 -252 -25 -39 -11 -73 -18 -75 -15 -10 9 43 29 126 46 117 25 272 25
386 0z m4402 14 c-3 -3 -12 -4 -19 -1 -8 3 -5 6 6 6 11 1 17 -2 13 -5z m7 -30
c9 -24 7 -34 -8 -34 -14 0 -28 34 -18 44 10 10 20 6 26 -10z m-4508 -32 c34 2
137 -31 146 -46 9 -16 64 -46 85 -46 7 0 13 -4 13 -10 0 -17 -27 -12 -133 25
-56 18 -121 39 -144 45 -25 6 -43 17 -43 25 0 17 21 25 41 14 9 -4 24 -8 35
-7z m-981 -22 c19 -36 80 -204 89 -245 10 -48 -8 -10 -49 100 -21 55 -46 117
-56 138 -11 20 -15 37 -9 37 5 0 16 -13 25 -30z m5673 -68 c-19 -21 -48 -65
-64 -98 -53 -108 -35 -261 45 -372 l19 -27 -122 4 c-140 4 -221 -8 -356 -53
-147 -49 -310 -155 -332 -217 -13 -35 -21 10 -22 109 0 85 5 119 21 165 27 72
97 172 155 219 74 61 314 171 562 259 60 21 111 41 114 44 3 3 7 5 10 5 2 0
-11 -17 -30 -38z m-4661 -10 c43 -16 94 -39 113 -51 l35 -23 -30 7 c-16 3 -48
15 -70 25 -22 11 -67 31 -100 44 -83 35 -43 32 52 -2z m4745 -27 c4 -17 1 -25
-8 -25 -8 0 -14 11 -14 25 0 14 4 25 9 25 5 0 11 -11 13 -25z m-397 3 c-38
-22 -198 -88 -203 -83 -4 4 121 65 178 88 28 11 46 7 25 -5z m365 -28 c0 -5
-5 -10 -11 -10 -5 0 -7 5 -4 10 3 6 8 10 11 10 2 0 4 -4 4 -10z m168 -57 c6
-126 44 -243 99 -304 l35 -39 -63 6 c-35 4 -69 11 -76 16 -7 5 -18 6 -24 2 -7
-4 -9 -3 -5 4 4 7 -11 13 -41 18 -27 4 -40 10 -30 12 20 4 23 28 5 35 -7 3 5
6 27 6 54 1 31 23 -33 31 l-47 5 2 54 c3 61 -2 63 -17 5 -9 -38 -9 -38 -4 11
6 55 20 114 31 131 7 10 118 71 133 73 3 1 7 -29 8 -66z m-5167 46 c30 -16 49
-66 37 -100 -14 -42 -45 -47 -77 -14 -18 20 -21 26 -8 22 11 -4 17 -1 17 7 0
25 -12 46 -25 46 -12 0 -25 21 -25 41 0 12 57 11 81 -2z m849 -84 c0 -8 -2
-15 -4 -15 -2 0 -6 7 -10 15 -3 8 -1 15 4 15 6 0 10 -7 10 -15z m-1520 -42
c46 -99 357 -1039 347 -1049 -6 -6 -51 110 -93 241 -18 55 -59 177 -92 270
-33 94 -88 249 -122 345 -34 96 -65 185 -67 198 -7 31 11 28 27 -5z m2750 -73
c0 -5 -14 -20 -31 -32 -22 -17 -29 -28 -25 -44 5 -17 0 -23 -21 -29 -16 -4
-29 -2 -34 6 -4 7 -27 15 -51 19 l-43 6 31 16 c17 9 43 18 57 20 15 2 36 14
47 26 21 22 70 31 70 12z m3510 6 c0 -2 -7 -6 -15 -10 -8 -3 -15 -1 -15 4 0 6
7 10 15 10 8 0 15 -2 15 -4z m-5599 -114 c26 -66 33 -92 23 -92 -17 0 -46 57
-68 129 -19 65 -19 64 -4 59 7 -3 29 -46 49 -96z m6400 34 c105 -27 190 -62
262 -108 68 -44 49 -48 -30 -6 -65 34 -214 80 -298 92 l-40 5 42 -15 c34 -13
83 -59 71 -68 -2 -2 -48 -15 -103 -30 -88 -24 -104 -32 -137 -68 -21 -23 -38
-46 -38 -51 0 -6 -3 -7 -7 -4 -3 4 -12 -5 -20 -19 -19 -39 -16 -128 6 -173 20
-38 81 -100 122 -121 22 -12 22 -13 4 -26 -23 -17 -12 -18 17 -3 13 7 18 7 14
1 -4 -6 2 -15 11 -21 15 -9 12 -10 -14 -7 -17 2 -47 13 -66 25 -19 11 -37 21
-41 21 -3 0 -7 -21 -7 -47 -1 -27 -3 -40 -6 -31 -2 10 -10 15 -19 11 -10 -4
-14 4 -15 28 -1 25 -5 16 -14 -31 -16 -89 -34 -148 -45 -155 -5 -3 -3 16 6 42
38 121 36 189 -5 256 -64 104 -173 153 -250 112 -43 -22 -65 -77 -64 -165 1
-144 49 -274 149 -407 33 -45 50 -75 43 -79 -14 -8 -59 25 -84 63 -34 52 -46
69 -40 56 3 -7 1 -13 -4 -13 -6 0 -11 8 -11 19 0 26 -28 91 -39 91 -5 0 -12
14 -16 31 -4 17 -13 42 -20 56 -8 14 -17 55 -21 89 -3 35 -9 62 -13 59 -9 -5
-34 62 -28 72 3 5 11 60 17 123 7 63 13 122 14 130 3 20 34 80 55 104 13 16
13 18 1 12 -8 -4 3 8 24 27 68 60 205 119 326 140 79 14 222 6 311 -17z
m-4967 -37 c55 -15 121 -81 159 -158 29 -60 32 -73 32 -161 0 -63 -6 -115 -18
-154 l-19 -60 -26 34 c-14 18 -48 43 -76 56 -62 28 -36 32 29 4 26 -11 48 -20
50 -20 10 0 13 34 5 55 -14 36 -58 54 -170 67 -58 7 -95 15 -88 20 10 5 8 8
-4 8 -29 0 -87 33 -94 52 -3 10 -10 18 -15 18 -5 0 -9 30 -9 68 0 47 -3 63
-10 52 -7 -11 -10 -2 -10 32 0 41 -3 47 -22 50 -17 3 -7 8 32 20 98 29 188 35
254 17z m237 -111 c43 -43 137 -184 128 -192 -2 -2 -32 -7 -66 -11 -62 -7 -63
-6 -63 17 0 50 -38 158 -73 207 -21 28 -37 54 -37 57 0 12 66 -34 111 -78z
m3974 37 c-22 -19 -43 -35 -46 -35 -4 0 -10 -7 -13 -16 -3 -8 -2 -13 3 -9 5 3
-4 -19 -20 -47 -16 -29 -41 -89 -55 -133 -23 -68 -27 -98 -28 -205 0 -134 18
-219 69 -320 25 -49 110 -169 132 -185 9 -7 -3 -9 -39 -5 -41 3 -45 5 -20 8
17 2 32 7 32 13 0 5 -4 9 -8 9 -12 0 -92 79 -92 90 0 13 -23 19 -175 50 -49
11 -111 19 -137 19 -58 1 -58 2 -68 171 l-8 125 1 -145 c0 -129 -2 -145 -17
-148 -9 -2 -24 2 -33 10 -13 11 -15 31 -10 138 3 69 13 150 21 180 8 30 14 56
11 58 -4 5 -23 -60 -31 -110 -7 -40 -24 -43 -24 -4 0 33 38 152 68 216 15 30
28 59 31 64 2 5 -1 6 -8 2 -17 -11 -13 0 7 20 16 17 16 17 -5 12 -106 -28 194
105 372 164 50 17 94 34 100 39 5 5 14 9 19 9 6 0 -7 -16 -29 -35z m-4556
-138 c1 -33 -3 -47 -11 -45 -7 3 -11 29 -9 78 l2 73 -34 -29 c-19 -16 -40 -38
-45 -49 -7 -13 -11 -15 -11 -5 -1 8 20 36 47 63 l47 48 7 -43 c3 -24 7 -65 7
-91z m5784 80 c-3 -13 -18 -39 -33 -57 -24 -28 -81 -150 -104 -222 -6 -20 -69
-25 -95 -9 -33 21 87 208 177 276 53 41 61 43 55 12z m-6803 -49 c42 -98 60
-148 54 -148 -17 0 -58 74 -90 163 -21 60 9 47 36 -15z m4952 -51 c-66 -71
-116 -149 -143 -228 -31 -87 -38 -268 -15 -360 22 -86 87 -218 143 -286 42
-52 44 -55 20 -49 -14 3 -114 13 -222 21 -271 20 -464 3 -615 -55 -74 -28
-190 -107 -216 -148 l-22 -32 -20 25 c-32 40 -47 120 -46 240 1 188 46 332
143 463 93 124 145 158 401 260 245 97 624 220 639 206 2 -2 -19 -28 -47 -57z
m1168 59 c0 -2 -8 -10 -17 -17 -16 -13 -17 -12 -4 4 13 16 21 21 21 13z
m-5255 -53 c-4 -10 -34 -112 -67 -228 -59 -206 -88 -298 -94 -293 -4 5 20 113
60 263 64 241 76 275 92 275 12 0 14 -5 9 -17z m-1005 -18 c10 -12 9 -15 -6
-15 -11 0 -28 7 -38 15 -19 14 -19 15 6 15 14 0 31 -7 38 -15z m609 0 c73 -8
159 -22 191 -30 32 -8 67 -15 79 -15 14 0 21 -6 21 -18 0 -10 -22 -96 -50
-192 -30 -106 -47 -155 -44 -124 7 58 5 60 -65 79 -54 15 -19 20 42 6 20 -5
37 -5 37 -1 0 5 3 16 6 25 4 9 3 15 -2 14 -30 -5 -37 2 -20 20 17 19 16 20
-47 40 -36 11 -82 23 -102 27 -48 9 -26 24 26 17 21 -3 59 -2 85 2 l48 7 -49
24 c-28 13 -55 24 -61 24 -6 0 -35 7 -64 16 l-55 16 30 12 30 12 -30 6 c-51
10 -205 28 -315 37 l-105 8 140 1 c77 1 200 -5 274 -13z m-699 -40 c136 -26
247 -54 376 -96 145 -47 131 -17 133 -302 2 -192 1 -197 -17 -186 -12 7 -17
19 -14 31 2 11 -1 18 -9 18 -11 0 -11 2 1 10 12 8 12 11 -3 28 -9 10 -17 22
-17 27 0 4 -14 21 -31 36 -17 15 -28 32 -24 38 9 16 -40 60 -75 67 -17 4 -33
11 -36 15 -8 14 35 10 90 -6 63 -19 66 -19 66 5 0 11 -3 19 -7 18 -5 -1 -24 5
-44 14 -20 9 -51 19 -69 23 -22 5 -29 10 -20 15 10 6 2 13 -23 24 -25 10 -37
22 -38 35 -4 59 -20 75 -101 99 -97 28 -265 59 -360 67 -70 6 -78 9 -78 27 0
20 3 21 108 15 59 -4 145 -14 192 -22z m4609 20 c-9 -8 -79 -35 -79 -30 0 7
53 34 69 35 8 0 12 -2 10 -5z m-3419 -39 c6 -8 35 -22 63 -32 137 -44 357
-198 357 -249 0 -32 -47 -247 -80 -367 -62 -222 -119 -368 -144 -368 -9 0 -44
13 -78 28 -35 16 -78 34 -96 42 -61 24 -24 22 68 -5 51 -14 93 -25 95 -23 15
19 90 228 83 232 -2 1 -16 7 -31 14 -15 7 -25 17 -22 22 4 7 12 7 25 0 27 -15
28 -13 24 25 -2 22 1 35 9 35 6 0 -6 9 -28 21 -51 27 -69 44 -35 34 47 -14 80
-36 81 -53 0 -14 2 -14 9 3 15 34 11 41 -37 68 l-48 26 38 -6 c25 -4 37 -2 37
6 0 7 5 9 11 5 9 -5 10 1 5 22 -6 29 -69 94 -90 94 -13 0 -65 39 -53 40 15 0
132 -62 155 -83 l22 -20 0 31 c0 19 -5 32 -12 32 -13 0 -82 43 -123 75 -19 15
-17 15 25 9 24 -4 59 -17 76 -31 35 -26 42 -22 46 25 1 17 8 34 15 36 56 22
-60 115 -297 239 -47 24 -84 49 -82 56 1 6 -2 11 -8 11 -5 0 -10 5 -10 10 0
15 16 12 30 -4z m137 -28 c-3 -8 -6 -5 -6 6 -1 11 2 17 5 13 3 -3 4 -12 1 -19z
m738 -23 c145 -38 204 -97 212 -212 6 -76 -10 -123 -48 -143 -32 -18 -44 -6
-58 54 -17 77 -27 81 -191 78 l-136 -2 4 103 c2 73 0 98 -7 87 -9 -12 -11 -10
-11 12 0 21 5 27 28 31 63 9 152 6 207 -8z m-238 -117 c-2 -13 -4 -3 -4 22 0
25 2 35 4 23 2 -13 2 -33 0 -45z m-1629 6 c4 -33 -11 -24 -23 15 -5 17 -4 22
6 19 8 -3 15 -18 17 -34z m6662 -6 c41 -10 82 -21 90 -24 25 -10 -18 -23 -78
-23 -49 -1 -52 -2 -38 -17 9 -8 16 -20 16 -25 0 -5 19 -19 43 -30 23 -11 35
-18 27 -16 -8 2 -61 12 -117 22 -57 10 -103 23 -103 29 0 6 12 35 27 64 20 39
31 51 42 46 9 -3 50 -15 91 -26z m-5242 -1 c2 -10 -3 -17 -12 -17 -10 0 -16 9
-16 21 0 24 23 21 28 -4z m2624 1 c-7 -7 -12 -8 -12 -2 0 14 12 26 19 19 2 -3
-1 -11 -7 -17z m-4154 -21 c15 -7 22 -18 20 -31 -4 -28 -44 -33 -66 -8 -20 22
-92 42 -151 42 -23 0 -41 5 -41 10 0 14 207 3 238 -13z m2755 -7 c-3 -12 -8
-19 -11 -16 -5 6 5 36 12 36 2 0 2 -9 -1 -20z m61 -35 c5 -29 4 -36 -4 -25 -9
13 -11 13 -21 0 -9 -13 -10 -12 -5 3 3 10 6 33 6 50 0 41 16 23 24 -28z m461
-122 c-3 -93 -8 -192 -10 -220 -5 -52 -5 -53 22 -54 16 0 42 -6 60 -12 l32
-12 -29 -44 c-37 -54 -31 -68 48 -118 76 -48 122 -92 122 -118 0 -24 23 -40
205 -149 61 -36 162 -98 225 -139 114 -73 115 -74 128 -124 8 -29 29 -77 48
-109 19 -31 34 -60 34 -65 0 -5 4 -9 9 -9 5 0 31 -29 57 -65 26 -35 53 -66 60
-69 15 -6 -38 -62 -126 -136 -83 -70 -135 -121 -133 -130 2 -5 -4 -7 -11 -4
-8 3 -19 -4 -26 -16 -6 -11 -15 -18 -21 -15 -5 4 -9 2 -9 -4 0 -6 -8 -8 -17
-4 -10 3 -15 3 -11 -2 8 -8 -266 -150 -345 -179 -26 -9 -67 -24 -92 -33 -24
-8 -42 -19 -39 -24 3 -5 -10 -7 -28 -4 -29 4 -28 3 6 -7 119 -33 433 63 662
203 37 22 68 38 70 36 7 -6 -133 -100 -201 -135 -33 -17 -100 -47 -150 -67
-78 -30 -84 -34 -45 -29 63 8 104 21 188 60 40 19 75 34 77 34 10 0 170 103
173 111 2 5 10 9 18 9 8 0 14 4 14 8 0 5 6 9 14 9 28 0 4 -23 -86 -81 -97 -63
-310 -166 -343 -166 -17 0 -18 -2 -5 -11 12 -8 10 -10 -11 -7 -18 3 -25 0 -26
-13 -1 -13 3 -16 14 -12 12 5 14 3 8 -7 -6 -10 -1 -12 21 -7 l29 6 -27 -12
c-30 -12 -39 -30 -10 -20 12 4 14 3 7 -5 -5 -5 -19 -12 -30 -14 -11 -2 -15 -6
-10 -10 27 -16 339 135 522 254 83 53 113 64 113 39 0 -5 -31 -32 -70 -62 -72
-54 -86 -68 -49 -48 16 8 24 8 33 -1 15 -15 -9 -33 -104 -77 -41 -19 -103 -48
-136 -64 -34 -16 -67 -29 -73 -29 -6 0 -11 -4 -11 -9 0 -19 220 51 410 131
193 81 312 178 296 242 -8 32 -39 49 -76 41 -44 -10 -65 -39 -62 -91 1 -38 -2
-46 -23 -56 -19 -8 -30 -7 -57 9 -101 58 -89 241 21 331 77 63 135 81 333 107
252 32 464 81 584 134 26 12 49 19 52 17 11 -11 -10 -37 -50 -62 -24 -15 -66
-42 -94 -61 -29 -18 -85 -48 -125 -66 -104 -45 -106 -47 -79 -62 20 -11 10
-13 -76 -20 l-99 -7 45 -39 45 -39 -115 -1 c-63 -1 -104 -4 -92 -8 l24 -6 -22
-28 c-12 -15 -29 -27 -38 -27 -12 0 -13 -3 -5 -8 11 -7 11 -33 -1 -102 -7 -44
-115 -175 -227 -274 -41 -36 -86 -78 -100 -92 -15 -15 -32 -24 -37 -20 -6 3
-13 -2 -16 -12 -7 -19 -92 -66 -106 -57 -4 3 -66 -24 -137 -59 -70 -35 -150
-73 -178 -85 -27 -12 -58 -26 -68 -32 -67 -37 -284 -104 -485 -149 -135 -30
-288 -53 -460 -67 -119 -10 -117 6 4 28 49 9 148 26 219 39 72 13 139 27 150
31 l20 8 -20 0 c-25 0 -112 -15 -145 -24 -14 -4 -54 -11 -90 -16 -61 -8 -142
-23 -200 -36 -14 -4 -29 -5 -34 -4 -6 1 -20 -3 -33 -10 -17 -9 -29 -10 -45 -1
-13 6 -70 13 -128 17 -106 6 -292 32 -255 35 l20 1 -20 8 c-17 7 -15 9 15 15
52 11 72 17 67 22 -2 2 -71 17 -154 34 -83 16 -183 41 -224 56 -100 36 -253
110 -274 134 -11 13 3 8 47 -15 163 -87 401 -138 538 -116 l45 7 -65 12 c-254
50 -520 179 -662 323 -87 88 -110 131 -30 57 234 -216 502 -323 862 -343 96
-5 186 2 378 31 59 9 52 24 -11 24 -30 0 -91 11 -137 25 -101 30 -128 28 -38
-2 137 -47 -38 -12 -258 51 -44 13 -100 33 -124 45 -24 11 -53 21 -65 21 -30
0 -148 73 -162 100 -6 13 -19 27 -27 32 -21 12 -20 -1 2 -19 10 -9 11 -12 2
-7 -27 13 -60 47 -54 56 3 5 2 8 -3 7 -20 -5 -43 14 -38 31 4 11 -1 20 -12 24
-15 6 -15 8 -3 17 13 8 13 10 0 18 -8 6 -12 13 -8 16 6 6 86 -43 127 -79 15
-13 21 -15 17 -6 -4 8 0 6 8 -4 9 -11 16 -16 16 -10 0 5 4 4 8 -2 4 -5 25 -21
47 -34 22 -13 51 -31 65 -39 23 -15 24 -14 12 1 -7 9 -61 48 -120 87 -113 73
-222 169 -222 195 0 9 51 -21 138 -82 162 -114 278 -185 415 -253 115 -58 302
-123 397 -138 104 -17 274 -13 365 8 52 13 70 20 50 21 -16 1 -39 6 -50 11
-15 7 -11 8 15 4 27 -5 31 -3 18 5 -9 5 -104 17 -211 25 -107 8 -230 22 -274
30 -115 24 -286 66 -303 76 -17 9 48 4 120 -11 92 -18 405 -49 335 -33 -11 2
-38 11 -60 20 -22 8 -49 16 -61 18 -43 4 -257 59 -247 62 5 2 29 0 52 -6 22
-5 39 -5 36 -1 -4 7 -50 19 -95 25 -8 1 -35 8 -60 15 -39 11 -42 14 -21 19
l23 6 -23 12 c-13 7 -72 34 -131 62 -59 27 -135 69 -170 93 -125 87 -168 120
-168 131 0 9 2 9 8 1 4 -7 25 -17 47 -23 45 -12 83 -13 45 -1 -19 6 -21 8 -6
9 14 1 10 8 -20 30 -22 15 -53 40 -68 55 -16 14 -32 26 -36 26 -13 0 -80 92
-74 102 3 4 1 7 -3 6 -9 -3 -73 55 -73 65 0 2 29 65 65 139 66 137 77 178 50
178 -8 0 -23 4 -33 10 -40 23 -231 51 -777 117 -191 23 -127 30 125 13 214
-13 421 -41 602 -80 178 -39 174 -37 150 -64 -11 -11 -23 -32 -27 -44 -6 -22
-5 -23 15 -12 11 6 29 24 39 41 10 16 21 26 24 22 4 -3 7 -2 7 4 0 10 -39 41
-70 55 -11 5 -10 7 6 7 11 1 31 -10 44 -24 29 -31 69 -32 129 -3 61 29 148
120 180 188 24 51 26 65 25 200 0 127 3 147 18 161 10 9 18 23 19 30 0 8 7 1
15 -16 l14 -30 -6 35 c-6 34 -5 34 10 15 13 -15 12 -9 -3 21 -11 23 -29 63
-40 90 -10 27 -41 103 -68 169 -53 127 -69 185 -53 185 6 0 10 -6 10 -14 0 -8
5 -18 10 -21 6 -4 9 -1 8 6 -2 6 3 14 10 16 6 3 12 0 12 -6 0 -6 18 -11 39
-11 22 0 41 -4 43 -10 4 -12 83 -21 218 -24 96 -3 105 -4 103 -22 -1 -10 2
-21 7 -24 5 -3 18 -52 29 -109 12 -58 26 -122 33 -143 12 -40 16 -41 93 -24
11 3 24 5 28 5 5 1 7 92 4 204 -3 111 -2 183 2 160 4 -24 11 -46 15 -50 5 -5
5 2 2 14 -4 13 -3 31 3 40 8 14 10 15 11 3 0 -9 11 -16 28 -16 75 -4 99 -7
115 -16 14 -7 24 -5 38 8 17 16 22 16 29 4 7 -11 10 -4 10 23 0 20 2 37 5 37
3 0 3 -75 0 -167z m-3155 108 c-11 -22 -30 -28 -30 -11 0 6 8 23 17 37 14 21
19 23 21 11 2 -10 -2 -26 -8 -37z m3364 11 c-4 -18 -10 -32 -15 -32 -11 0 -11
1 2 39 14 40 21 35 13 -7z m407 -22 c6 18 7 14 3 -15 -3 -22 -10 -41 -15 -43
-5 -2 -9 -12 -9 -22 0 -11 -6 -34 -14 -52 -35 -80 -95 -245 -99 -268 -2 -14
-2 -19 0 -12 3 7 8 10 13 7 5 -3 7 -12 3 -20 -4 -11 2 -15 21 -15 15 0 29 7
32 15 8 20 20 19 42 -3 15 -15 20 -41 25 -128 3 -60 9 -118 13 -129 7 -17 2
-15 -42 10 -74 44 -174 97 -332 177 l-143 73 6 55 c8 67 62 340 68 346 2 3 16
0 31 -6 36 -13 167 -13 146 0 -13 8 -13 10 2 10 9 0 28 -4 41 -9 22 -8 24 -7
20 10 -4 14 0 19 13 20 11 0 29 2 42 3 12 2 22 -1 22 -6 0 -4 18 -8 39 -8 23
0 41 -5 44 -12 2 -7 2 -3 0 10 -2 13 0 28 4 35 5 8 9 1 12 -18 l4 -30 8 25z
m-390 -13 c-10 -9 -11 -8 -5 6 3 10 9 15 12 12 3 -3 0 -11 -7 -18z m-1884 -59
c-8 -97 -104 -464 -113 -433 -6 17 51 256 59 249 8 -8 11 23 8 71 -1 23 0 27
8 15 8 -11 11 -1 11 40 0 55 16 130 27 130 3 0 3 -33 0 -72z m1933 52 c-8 -5
-22 -9 -30 -9 -10 0 -8 3 5 9 27 12 43 12 25 0z m-3672 -7 c-27 -2 -69 -2 -95
0 -27 2 -5 3 47 3 52 0 74 -1 48 -3z m130 -10 c-10 -2 -26 -2 -35 0 -10 3 -2
5 17 5 19 0 27 -2 18 -5z m142 -17 c0 -13 -7 -29 -15 -36 -13 -11 -15 -8 -15
17 0 16 3 33 7 36 13 14 23 6 23 -17z m1707 17 c-8 -7 -77 -6 -85 2 -3 3 16 5
43 5 27 0 45 -3 42 -7z m60 -15 c-3 -8 -6 -5 -6 6 -1 11 2 17 5 13 3 -3 4 -12
1 -19z m4706 16 c12 -4 13 -13 4 -47 -5 -23 -19 -54 -29 -69 l-19 -27 93 -28
c79 -24 89 -28 63 -33 -16 -3 -29 -9 -27 -13 6 -18 1 -27 -15 -27 -12 0 -8 -7
13 -26 l29 -26 -30 6 c-16 3 -72 13 -122 23 -55 10 -93 21 -93 28 0 14 108
245 114 245 2 0 11 -3 19 -6z m-4576 -68 c32 -126 26 -303 -13 -425 l-17 -52
-27 26 c-26 25 -213 95 -254 95 -16 0 -18 2 -7 9 7 5 23 6 35 3 11 -3 19 -2
15 1 -3 4 -30 13 -60 20 l-54 14 0 111 c0 60 3 105 8 98 4 -6 7 2 7 19 -1 17
2 43 6 59 5 19 2 31 -7 37 -31 19 10 22 159 12 86 -6 159 -9 162 -6 2 2 -1 12
-7 22 -11 17 -9 18 15 12 22 -6 29 -16 39 -55z m-77 44 c0 -5 -7 -10 -15 -10
-8 0 -15 5 -15 10 0 6 7 10 15 10 8 0 15 -4 15 -10z m4828 -95 c-3 -47 -6 -49
-48 -38 l-25 7 25 6 c17 4 27 16 34 38 12 44 17 40 14 -13z m-6638 18 c0 -10
3 -29 7 -43 6 -22 5 -24 -10 -11 -18 14 -24 71 -7 71 6 0 10 -8 10 -17z m17
-125 c-3 -7 -5 -2 -5 12 0 14 2 19 5 13 2 -7 2 -19 0 -25z m-850 -30 c-3 -8
-6 -5 -6 6 -1 11 2 17 5 13 3 -3 4 -12 1 -19z m2853 6 c0 -2 -12 -4 -27 -4
-21 0 -24 3 -14 9 13 8 41 5 41 -5z m-63 -51 c-3 -10 -5 -4 -5 12 0 17 2 24 5
18 2 -7 2 -21 0 -30z m-1882 12 c50 -8 108 -19 130 -25 70 -20 245 -92 245
-101 0 -5 5 -9 11 -9 6 0 20 -11 31 -25 11 -14 24 -22 30 -19 6 4 8 3 5 -3 -4
-5 4 -16 16 -22 35 -20 139 -145 173 -208 41 -78 66 -171 71 -273 6 -95 -5
-166 -37 -255 -29 -78 -110 -159 -211 -212 -69 -35 -80 -38 -159 -38 -76 0
-93 4 -150 32 -65 32 -177 132 -134 119 40 -12 96 -10 105 5 16 23 4 104 -19
137 -43 59 -161 91 -236 62 -45 -17 -104 -79 -120 -127 -21 -61 -20 -155 3
-220 10 -29 16 -53 14 -53 -2 0 -18 29 -34 65 -29 60 -30 70 -26 152 6 106 8
113 20 113 6 0 7 3 4 7 -4 3 -2 12 5 20 6 7 8 16 5 20 -6 6 21 62 34 73 4 3 9
16 10 30 3 21 0 26 -24 28 -32 4 -175 -65 -256 -123 -53 -39 -74 -45 -47 -16
17 19 17 20 -4 31 -16 9 -25 9 -33 1 -6 -6 -18 -11 -26 -11 -8 0 0 13 20 33
45 43 105 87 118 87 6 0 11 7 11 15 0 8 -9 15 -20 15 -28 0 -136 -45 -182 -75
-21 -14 -39 -25 -42 -25 -5 0 -19 42 -17 53 1 5 -8 6 -19 2 -34 -11 -23 3 43
51 59 44 60 46 27 39 -59 -12 -123 -36 -165 -60 -36 -20 -41 -21 -42 -7 -3 37
-3 58 -1 82 2 14 -1 26 -7 27 -5 1 -9 -8 -7 -20 3 -21 2 -22 -13 -3 -21 27
-20 29 28 70 54 47 51 45 125 90 34 21 60 42 57 47 -4 5 -2 9 3 9 5 0 9 7 9
16 0 11 -7 14 -26 10 -24 -5 -23 -4 4 9 17 8 25 14 19 15 -16 0 -133 -39 -181
-61 -24 -10 -45 -19 -48 -19 -3 0 -5 47 -5 105 l0 105 43 27 c86 54 265 133
372 163 206 58 342 70 500 45z m1907 -7 c-7 -7 -12 -8 -12 -2 0 6 3 14 7 17 3
4 9 5 12 2 2 -3 -1 -11 -7 -17z m-2815 -50 c-2 -13 -4 -3 -4 22 0 25 2 35 4
23 2 -13 2 -33 0 -45z m7207 53 c3 -5 3 -23 0 -39 -5 -23 -14 -34 -37 -42 -42
-14 -49 -2 -27 48 13 29 25 42 39 42 11 0 22 -4 25 -9z m-4238 -43 c107 -72
139 -144 132 -298 -4 -113 -25 -165 -97 -240 -53 -57 -139 -105 -158 -88 -17
14 -16 29 1 22 21 -8 69 72 70 115 1 29 -5 39 -39 62 -22 16 -71 41 -110 56
-38 15 -62 29 -52 31 9 2 17 9 17 17 0 7 7 26 15 41 17 33 21 129 5 104 -13
-20 -12 -7 1 27 13 32 15 41 17 102 l2 44 49 -7 c48 -6 49 -6 59 24 6 16 15
30 19 30 4 0 36 -19 69 -42z m-2962 -65 c-10 -40 -14 -41 -14 -5 0 18 5 32 10
32 6 0 8 -11 4 -27z m7316 12 c0 -2 -10 -10 -22 -16 -21 -11 -22 -11 -9 4 13
16 31 23 31 12z m-7299 -38 c-10 -9 -11 -8 -5 6 3 10 9 15 12 12 3 -3 0 -11
-7 -18z m7102 1 c9 -8 38 -19 64 -23 26 -4 53 -11 58 -15 6 -4 47 -22 91 -39
46 -18 124 -61 180 -99 l99 -68 -1 -50 c-3 -134 -10 -234 -17 -240 -4 -4 -7
-17 -7 -28 -1 -20 -2 -20 -14 -4 -16 22 -26 13 -26 -23 0 -15 -4 -31 -10 -34
-5 -3 -10 -1 -10 6 0 9 -4 9 -15 -1 -8 -6 -19 -9 -25 -5 -7 4 -4 -7 4 -24 9
-17 22 -31 29 -31 8 0 7 -4 -3 -10 -20 -13 -33 -12 -24 2 4 7 3 8 -4 4 -6 -4
-38 7 -71 23 -52 27 -201 75 -201 65 0 -2 33 -25 73 -52 39 -26 86 -61 102
-78 17 -16 26 -26 21 -22 -15 12 -44 10 -52 -3 -3 -6 0 -15 7 -20 8 -5 11 -9
7 -10 -5 -1 -12 -3 -18 -4 -5 -1 -13 -3 -17 -4 -4 0 2 -8 13 -17 46 -37 -17
-2 -91 51 -100 71 -214 139 -221 132 -3 -3 11 -24 32 -47 42 -45 94 -134 94
-160 0 -9 4 -20 10 -25 10 -11 -81 -12 -98 -1 -6 4 -12 -6 -15 -21 -4 -27 -4
-27 -12 -5 -6 18 -10 20 -21 11 -11 -9 -14 -8 -14 5 0 10 -5 14 -10 11 -6 -3
-13 1 -16 9 -3 9 -14 16 -25 16 -10 0 -23 9 -29 20 -12 23 -47 26 -72 6 -12
-9 -18 -27 -18 -54 0 -60 -26 -172 -54 -236 -33 -75 -40 -71 -9 5 32 80 45
171 32 225 -13 51 -57 106 -103 128 -129 61 -292 -65 -269 -209 7 -42 -15 -51
-70 -27 -52 23 -102 79 -136 152 -21 47 -25 69 -25 150 0 134 5 215 13 202 4
-6 13 10 20 36 8 26 18 52 23 59 5 7 7 17 3 23 -4 6 -3 9 2 8 14 -5 54 42 47
54 -4 6 -3 8 3 5 10 -7 90 83 85 96 -1 5 2 6 7 3 5 -3 19 8 32 24 13 16 27 30
31 30 5 0 55 23 113 50 57 28 129 56 159 62 31 6 54 14 51 18 -2 4 6 5 18 3
12 -2 40 0 62 5 67 15 219 9 238 -10z m-938 -5 c-22 -2 -82 -10 -134 -19 -51
-8 -96 -13 -98 -10 -3 3 8 8 23 11 16 4 40 11 54 15 14 5 63 8 110 8 47 -1 67
-3 45 -5z m-2090 -28 c38 -23 62 -51 52 -61 -6 -6 -107 66 -107 76 0 15 7 13
55 -15z m-1758 -6 c80 -10 245 -51 289 -71 23 -11 24 -16 18 -52 -6 -41 -42
-149 -84 -258 -13 -32 -29 -58 -36 -58 -17 0 -17 4 0 39 18 34 96 266 96 284
0 17 -133 59 -275 87 -55 11 -103 20 -107 20 -5 0 -8 5 -8 10 0 13 10 12 107
-1z m3600 -5 c-3 -3 -12 -4 -19 -1 -8 3 -5 6 6 6 11 1 17 -2 13 -5z m-3955
-68 c4 -6 7 -18 7 -26 -1 -13 -2 -13 -5 0 -3 9 -40 28 -84 44 -44 16 -82 32
-85 36 -8 12 159 -41 167 -54z m23 24 c-4 -12 -9 -19 -12 -17 -3 3 -2 15 2 27
4 12 9 19 12 17 3 -3 2 -15 -2 -27z m2201 0 c26 -10 26 -11 9 -30 -21 -23 -45
-11 -45 21 0 22 0 22 36 9z m216 -116 c149 -83 229 -138 166 -115 -15 5 -60
30 -100 54 -40 24 -106 63 -145 86 -41 24 -80 41 -88 37 -15 -5 -21 5 -8 17
11 12 20 8 175 -79z m-2301 5 c-11 -30 -20 -49 -20 -43 -1 15 30 106 35 101 2
-2 -5 -28 -15 -58z m2154 31 c3 -6 -1 -7 -9 -4 -18 7 -21 14 -7 14 6 0 13 -4
16 -10z m2085 -8 c0 -10 -82 -36 -212 -68 -124 -30 -154 -46 -172 -89 -18 -43
-52 -60 -157 -79 -134 -25 -417 -56 -504 -56 -65 1 -94 6 -155 31 -90 35 -247
50 -290 27 -38 -20 -55 -64 -54 -138 1 -129 61 -235 238 -426 74 -80 61 -85
-16 -6 -197 201 -278 367 -254 524 10 67 31 86 105 99 80 15 184 1 331 -42 99
-29 112 -31 230 -26 150 7 414 44 453 64 16 8 35 30 43 49 18 42 20 43 214 95
85 22 160 42 165 44 19 6 35 5 35 -3z m-2045 -20 c-3 -3 -11 0 -18 7 -9 10 -8
11 6 5 10 -3 15 -9 12 -12z m175 -181 c129 -78 238 -148 243 -157 5 -9 -24 6
-64 33 -41 27 -158 100 -261 162 -104 62 -188 118 -188 124 0 5 8 3 18 -6 9
-8 123 -79 252 -156z m503 148 c-5 -5 -31 -11 -58 -14 -59 -7 -52 9 10 23 42
9 63 6 48 -9z m237 6 c0 -16 -45 -21 -54 -6 -8 12 4 21 31 21 14 0 23 -6 23
-15z m1150 12 c0 -2 -15 -16 -32 -33 l-33 -29 29 33 c28 30 36 37 36 29z
m-1259 -22 c0 -5 -9 -11 -21 -13 -20 -3 -27 8 -13 22 10 9 34 3 34 -9z m199 5
c0 -5 -4 -10 -10 -10 -5 0 -10 5 -10 10 0 6 5 10 10 10 6 0 10 -4 10 -10z
m-2795 -10 c3 -6 -1 -7 -9 -4 -18 7 -21 14 -7 14 6 0 13 -4 16 -10z m-62 -23
c27 -7 48 -16 48 -20 -1 -4 -1 -15 -1 -24 0 -15 -1 -15 -14 2 -7 10 -33 26
-57 36 -52 21 -43 23 24 6z m2977 -1 c0 -2 -9 -6 -20 -9 -11 -3 -20 -1 -20 4
0 5 9 9 20 9 11 0 20 -2 20 -4z m-100 -22 c0 -17 -22 -14 -28 4 -2 7 3 12 12
12 9 0 16 -7 16 -16z m-513 -19 c-4 -8 -11 -15 -17 -15 -14 0 -13 27 3 33 16
6 21 1 14 -18z m423 15 c0 -5 -11 -10 -25 -10 -14 0 -25 5 -25 10 0 6 11 10
25 10 14 0 25 -4 25 -10z m-105 -20 c4 -6 -7 -10 -24 -10 -17 0 -31 5 -31 10
0 6 11 10 24 10 14 0 28 -4 31 -10z m210 -20 c3 -5 -1 -10 -10 -10 -9 0 -13 5
-10 10 3 6 8 10 10 10 2 0 7 -4 10 -10z m100 0 c8 -13 -15 -13 -35 0 -12 8
-11 10 7 10 12 0 25 -4 28 -10z m-185 -24 c0 -9 -7 -12 -20 -9 -11 3 -17 9
-14 14 8 14 34 10 34 -5z m-2440 -51 c0 -14 -14 -39 -31 -57 -23 -24 -27 -26
-15 -8 25 39 37 72 32 87 -3 8 -1 11 4 8 6 -3 10 -17 10 -30z m2530 25 c0 -5
-7 -10 -15 -10 -8 0 -15 5 -15 10 0 6 7 10 15 10 8 0 15 -4 15 -10z m753 -40
c-36 -22 -58 -52 -68 -93 -11 -42 -23 -41 -15 1 10 54 25 77 62 95 46 23 60
21 21 -3z m-3643 -10 c0 -13 -11 -13 -30 0 -12 8 -11 10 8 10 12 0 22 -4 22
-10z m2598 -66 c46 -32 12 -104 -48 -104 -36 0 -70 31 -70 64 0 29 34 56 70
56 14 0 36 -7 48 -16z m-5071 -51 c-3 -10 -5 -4 -5 12 0 17 2 24 5 18 2 -7 2
-21 0 -30z m5403 16 c-36 -4 -93 -10 -127 -14 -33 -4 -74 -4 -90 1 -22 7 -10
10 62 14 50 4 119 6 155 7 l65 0 -65 -8z m-3482 -49 c-38 -38 -40 -42 -34 -87
10 -80 12 -86 32 -90 10 -1 35 -6 55 -9 40 -6 100 18 132 54 26 29 32 82 13
126 -20 49 0 44 27 -7 16 -31 17 -42 7 -72 -22 -68 -108 -124 -188 -125 -53 0
-97 38 -107 93 -9 46 22 114 62 139 44 27 44 21 1 -22z m-1901 -2 c-3 -8 -6
-5 -6 6 -1 11 2 17 5 13 3 -3 4 -12 1 -19z m5460 -31 l28 -31 -33 27 c-43 35
-76 34 -113 -2 -29 -29 -37 -68 -23 -106 9 -23 57 -45 98 -45 43 0 66 29 66
84 0 22 3 37 6 33 3 -3 6 -21 6 -40 0 -81 -67 -118 -139 -77 -52 29 -66 53
-58 101 16 96 99 125 162 56z m-482 -33 c7 2 17 0 22 -5 10 -10 136 11 170 30
31 16 83 10 94 -11 14 -26 -1 -43 -41 -44 -19 -1 -85 -5 -147 -9 -118 -8 -132
-5 -154 36 -8 15 -6 18 8 13 13 -4 12 0 -4 12 -13 9 -23 24 -23 32 0 11 12 2
31 -21 17 -21 37 -36 44 -33z m-2574 45 c45 -23 44 -99 -1 -128 l-25 -16 23
29 c39 50 19 116 -35 116 -27 0 -62 -32 -64 -57 -1 -10 -2 -25 -3 -33 -1 -8 3
-22 9 -30 9 -13 8 -13 -7 -1 -30 23 -23 75 13 105 33 28 59 32 90 15z m-2418
-24 c-7 -21 -13 -19 -13 6 0 11 4 18 10 14 5 -3 7 -12 3 -20z m2623 15 c26 0
34 -4 34 -17 -1 -20 -29 -74 -30 -57 0 7 -27 20 -60 30 -32 9 -56 22 -53 27 3
5 -1 14 -8 19 -10 6 2 8 35 4 27 -3 64 -6 82 -6z m3184 -8 c-28 -14 -36 -24
-38 -50 -2 -19 3 -42 10 -51 7 -9 3 -6 -9 7 -47 48 -18 108 52 111 14 1 9 -5
-15 -17z m72 -94 c-8 -8 -9 -4 -5 13 4 13 8 18 11 10 2 -7 -1 -18 -6 -23z
m-3257 13 c5 -9 -65 -155 -83 -173 -4 -4 -21 4 -37 17 -28 23 -29 26 -13 38
13 10 15 16 6 25 -9 9 -5 12 17 12 48 0 74 10 68 26 -3 8 -14 14 -24 14 -25 0
-70 30 -63 41 7 12 121 12 129 0z m2672 -44 c1 -26 0 -28 -7 -12 -8 18 -9 18
-9 2 -1 -10 -5 -15 -11 -12 -5 3 -10 1 -10 -4 0 -6 -21 -11 -47 -11 -32 0 -56
-7 -73 -20 -30 -24 -56 -25 -64 -4 -3 8 -10 12 -16 9 -5 -3 -10 -1 -10 5 0 6
-3 9 -7 7 -5 -2 -18 9 -31 24 l-24 29 64 1 c35 0 86 4 113 9 28 4 68 8 90 9
38 1 40 0 42 -32z m-124 -90 c-4 -7 0 -8 13 -3 14 5 16 4 8 -4 -7 -7 -19 -8
-37 -1 -34 13 -35 30 -2 23 14 -2 22 -9 18 -15z m-2800 -22 c206 -43 317 -165
305 -334 -7 -102 -83 -181 -173 -181 -31 0 -36 3 -30 18 16 38 17 53 5 82 -16
39 -53 62 -104 62 -121 2 -165 -143 -87 -288 30 -57 83 -124 97 -124 6 0 49
-34 113 -88 34 -28 -15 2 -99 62 -99 71 -101 74 -139 146 -25 48 -36 86 -56
189 -7 36 -17 42 -57 31 -41 -12 -47 -18 -89 -91 l-31 -54 6 58 c4 39 3 56 -4
52 -6 -4 -1 17 10 47 11 29 20 55 20 57 0 2 -15 -8 -34 -23 -40 -30 -46 -31
-46 -12 0 24 -37 24 -89 0 -28 -13 -51 -21 -51 -18 0 12 24 51 48 76 l25 27
-26 6 c-14 4 -42 1 -63 -5 -41 -14 -50 -7 -49 37 0 16 -6 31 -15 34 -11 5 -8
10 14 18 16 6 26 14 23 18 -9 8 -124 -31 -216 -73 -41 -19 -75 -34 -77 -34 -2
0 0 8 3 18 6 15 5 16 -13 2 -18 -14 -18 -14 -5 3 8 10 20 16 28 13 8 -3 12 -2
8 3 -14 23 167 146 293 200 63 26 213 65 287 74 74 9 206 5 268 -8z m2618 -2
c13 -16 12 -17 -3 -4 -10 7 -18 15 -18 17 0 8 8 3 21 -13z m256 11 c-3 -3 -12
-4 -19 -1 -8 3 -5 6 6 6 11 1 17 -2 13 -5z m46 -1 c-7 -2 -19 -2 -25 0 -7 3
-2 5 12 5 14 0 19 -2 13 -5z m-150 -20 c-7 -2 -19 -2 -25 0 -7 3 -2 5 12 5 14
0 19 -2 13 -5z m117 -33 c-8 -5 -23 -10 -33 -10 -10 0 -16 -4 -12 -9 6 -11
-30 -8 -60 5 -17 8 -15 10 15 15 59 11 107 10 90 -1z m-215 -140 c10 -16 -96
-102 -198 -160 -75 -42 -236 -110 -261 -110 -12 0 13 19 59 43 44 24 111 62
149 85 37 23 71 42 75 42 3 1 40 25 81 54 81 59 86 61 95 46z m1705 -139 c-5
-11 -15 -23 -21 -27 -6 -3 -3 5 6 20 20 30 30 35 15 7z m-5470 -82 c-12 -8
-10 -10 9 -5 28 6 121 -12 121 -23 0 -5 21 -16 48 -26 121 -45 216 -129 263
-230 28 -59 33 -82 37 -169 5 -116 -5 -163 -48 -228 -78 -118 -243 -154 -336
-74 l-38 32 14 48 13 47 26 -25 c62 -59 111 -52 111 18 0 66 -46 120 -112 131
-45 8 -102 -17 -131 -57 -27 -36 -26 -119 0 -178 28 -61 66 -99 150 -149 253
-150 725 -259 1332 -306 107 -8 197 -18 200 -21 3 -4 -68 -3 -159 1 -91 4
-317 7 -503 7 -203 0 -335 3 -332 9 4 5 -14 9 -39 9 -32 0 -46 4 -46 14 0 15
-71 28 -111 20 -24 -4 -24 -4 -1 5 33 15 27 29 -13 31 -19 1 -48 3 -64 3 -16
1 -27 5 -24 9 2 5 -7 4 -20 -1 -66 -25 -381 189 -426 289 -12 28 -16 70 -16
187 0 83 -3 149 -7 147 -4 -2 -9 0 -13 6 -10 16 -34 12 -66 -11 -16 -11 -29
-16 -29 -10 0 6 5 11 10 11 21 0 9 27 -17 38 -25 10 -26 11 -3 5 25 -6 25 -5
7 15 -20 22 -34 20 -76 -7 -23 -14 -23 -14 -17 7 5 14 3 22 -5 22 -9 0 -8 4 1
15 10 12 10 15 -4 15 -12 0 -14 5 -6 24 7 20 5 25 -12 29 -12 4 -29 2 -39 -4
-27 -14 -36 -10 -15 6 34 26 7 16 -74 -26 -82 -42 -184 -127 -233 -194 l-29
-40 7 75 c4 41 14 86 22 99 17 27 16 26 -67 -30 -72 -49 -166 -134 -200 -181
l-27 -37 -23 31 c-27 36 -22 51 44 137 93 118 207 213 393 325 185 111 272
137 578 174 6 1 3 -3 -5 -9z m4537 -25 c-3 -3 -12 -4 -19 -1 -8 3 -5 6 6 6 11
1 17 -2 13 -5z m159 -3 c-3 -4 14 -11 38 -14 165 -23 326 -155 417 -342 36
-75 86 -241 75 -252 -2 -3 -16 17 -29 44 -42 81 -115 171 -182 220 -64 47
-109 67 -84 36 17 -20 21 -50 9 -58 -6 -3 -10 -17 -10 -29 0 -32 -41 -39 -100
-16 -25 9 -58 20 -75 24 l-30 7 36 -38 c48 -50 103 -155 64 -123 -12 10 -15 9
-15 -4 0 -10 -5 -14 -10 -11 -6 4 -8 11 -5 16 4 5 -1 16 -10 25 -15 15 -15 14
-9 -10 8 -32 0 -33 -40 -3 -56 43 -74 49 -98 36 -13 -7 -34 -13 -47 -14 -21
-1 -26 -8 -36 -56 -29 -146 -157 -261 -418 -375 -55 -24 -102 -43 -103 -41 -2
2 31 20 74 41 42 21 93 48 112 61 19 12 60 39 91 59 70 45 171 145 192 188 32
67 32 85 -1 118 -36 36 -87 40 -123 11 -22 -18 -23 -22 -12 -52 16 -41 10 -49
-33 -49 -82 0 -157 122 -157 255 -1 88 17 124 106 217 9 10 14 18 11 18 -4 0
11 14 32 31 70 57 116 71 243 76 64 3 118 7 120 9 8 7 12 4 7 -5z m-3056 -51
c0 -5 -7 -7 -15 -4 -8 4 -15 8 -15 10 0 2 7 4 15 4 8 0 15 -4 15 -10z m85 -50
c3 -5 -1 -10 -9 -10 -8 0 -18 5 -21 10 -3 6 1 10 9 10 8 0 18 -4 21 -10z m105
-40 c0 -12 -8 -12 -35 0 -18 8 -17 9 8 9 15 1 27 -3 27 -9z m75 -336 c24 -11
25 -13 5 -8 -14 4 -38 13 -55 20 -24 11 -25 13 -5 8 14 -4 39 -13 55 -20z
m1805 11 c0 -2 -15 -12 -32 -20 l-33 -16 25 20 c24 20 40 26 40 16z m-2663
-72 c44 -42 201 -148 235 -158 13 -4 32 -13 44 -20 32 -20 190 -74 284 -97 88
-22 409 -39 484 -27 20 3 36 2 36 -2 0 -12 -94 -29 -168 -31 -43 -1 -53 -3
-29 -5 39 -4 48 -25 11 -28 -10 -1 -37 -5 -59 -9 -25 -4 -35 -3 -27 2 20 13
-9 22 -66 21 -40 -1 -43 -2 -22 -10 18 -6 6 -8 -40 -5 -36 2 -54 1 -40 -1 14
-2 30 -10 35 -18 6 -7 24 -15 40 -18 17 -3 -1 -3 -38 -2 -72 3 -104 14 -46 16
27 1 29 3 9 6 -14 3 -29 9 -34 14 -6 5 -18 9 -28 9 -10 0 -18 5 -18 10 0 6 14
10 30 10 17 0 30 5 30 10 0 15 -77 12 -140 -5 -35 -9 -58 -11 -64 -5 -7 7 2
10 23 10 18 0 30 4 27 9 -3 5 2 12 11 15 22 9 9 20 -53 45 -157 61 -338 166
-418 243 -34 31 -58 57 -54 58 4 0 25 -16 45 -37z m4713 7 c85 -10 183 -35
253 -65 45 -18 43 -22 -32 -100 -39 -40 -57 -52 -66 -45 -7 6 -39 19 -71 31
-53 18 -73 20 -199 14 -156 -8 -228 -18 -233 -34 -2 -7 -10 -8 -22 -1 -16 9
-115 -17 -185 -49 -11 -5 -49 -19 -85 -32 -89 -32 -115 -45 -98 -53 7 -3 4 -4
-8 -1 -20 5 -67 -8 -137 -38 -17 -8 -57 -22 -87 -31 -30 -10 -64 -21 -75 -26
-79 -33 -415 -120 -537 -140 -37 -5 -79 -15 -93 -20 -15 -6 -41 -10 -60 -10
-19 0 -37 -4 -40 -10 -3 -5 -23 -10 -43 -10 -24 0 -32 -3 -24 -9 27 -17 -86
-20 -362 -9 -202 7 -326 7 -447 -1 -92 -6 -224 -10 -295 -10 l-129 2 128 8
c71 5 208 17 305 28 97 11 202 18 232 17 106 -6 406 24 646 64 456 76 684 150
1088 352 340 170 466 203 676 178z m-2239 -30 c-35 -17 -66 -30 -70 -29 -10 1
113 59 124 59 6 -1 -19 -14 -54 -30z m688 -38 c-34 -24 -268 -128 -366 -162
-185 -66 -648 -163 -629 -132 3 5 33 12 66 15 200 21 580 143 825 264 71 35
104 47 113 40 10 -8 8 -13 -9 -25z m-734 -27 c-16 -8 -37 -14 -45 -14 -8 0 1
7 20 14 46 18 64 17 25 0z m-66 -19 c-5 -4 -250 -76 -297 -87 -56 -12 -25 4
41 22 34 10 100 29 147 43 79 23 119 31 109 22z m-352 -102 c-3 -3 -12 -4 -19
-1 -8 3 -5 6 6 6 11 1 17 -2 13 -5z m2227 -53 c3 -5 -2 -15 -11 -22 -13 -11
-17 -11 -20 -1 -3 6 -12 12 -21 13 -14 0 -13 2 3 9 27 11 43 12 49 1z m-103
-37 c6 -8 18 -14 27 -14 8 0 13 -2 10 -5 -6 -7 -88 17 -88 25 0 12 39 8 51 -6z
m-3686 -14 c-3 -5 -12 -10 -18 -10 -7 0 -6 4 3 10 19 12 23 12 15 0z m3822 4
c-3 -3 -12 -4 -19 -1 -8 3 -5 6 6 6 11 1 17 -2 13 -5z m-2994 -31 c-7 -2 -19
-2 -25 0 -7 3 -2 5 12 5 14 0 19 -2 13 -5z m57 -3 c-12 -8 -10 -10 10 -11 14
0 41 -7 60 -15 l35 -14 -50 6 c-54 6 -96 28 -73 37 22 9 34 7 18 -3z m-950 -4
c0 -2 -7 -7 -16 -10 -8 -3 -12 -2 -9 4 6 10 25 14 25 6z m135 -6 c-3 -5 -14
-10 -23 -9 -14 0 -13 2 3 9 27 11 27 11 20 0z m512 4 c-3 -3 -12 -4 -19 -1 -8
3 -5 6 6 6 11 1 17 -2 13 -5z m485 -1 c-18 -2 -30 -7 -28 -11 2 -4 -16 -5 -40
-3 -72 5 -50 21 29 19 39 0 57 -3 39 -5z m-1107 -13 c3 -5 -1 -10 -10 -10 -9
0 -13 5 -10 10 3 6 8 10 10 10 2 0 7 -4 10 -10z m3730 -10 c-3 -5 -14 -10 -23
-9 -14 0 -13 2 3 9 27 11 27 11 20 0z m-2622 -27 c-7 -2 -19 -2 -25 0 -7 3 -2
5 12 5 14 0 19 -2 13 -5z m-366 -93 c132 -17 293 -34 359 -39 l119 -9 -125 3
c-172 5 -335 20 -476 45 -228 39 -189 39 123 0z m1270 -76 c-3 -3 -12 -4 -19
-1 -8 3 -5 6 6 6 11 1 17 -2 13 -5z m-94 -11 c-7 -2 -19 -2 -25 0 -7 3 -2 5
12 5 14 0 19 -2 13 -5z m-2810 -30 c-7 -2 -19 -2 -25 0 -7 3 -2 5 12 5 14 0
19 -2 13 -5z"/>
<path d="M4545 8156 c-31 -14 -72 -53 -64 -61 4 -4 89 52 107 70 9 9 -12 5
-43 -9z"/>
<path d="M6970 8139 c0 -5 5 -7 10 -4 6 3 10 8 10 11 0 2 -4 4 -10 4 -5 0 -10
-5 -10 -11z"/>
<path d="M2305 7026 c21 -32 27 -33 16 -4 -4 12 -14 24 -20 26 -8 3 -7 -5 4
-22z"/>
<path d="M2538 6883 c7 -3 16 -2 19 1 4 3 -2 6 -13 5 -11 0 -14 -3 -6 -6z"/>
<path d="M7638 6863 c7 -3 16 -2 19 1 4 3 -2 6 -13 5 -11 0 -14 -3 -6 -6z"/>
<path d="M5073 6498 c-39 -42 -193 -334 -193 -365 0 -40 36 -73 82 -73 43 0
73 22 118 89 19 28 38 51 41 51 3 0 25 -27 48 -60 23 -33 51 -64 61 -70 56
-30 130 9 130 70 0 31 -134 284 -185 347 -31 40 -71 44 -102 11z"/>
<path d="M8701 7063 c-1 -6 -4 -20 -7 -30 -5 -17 -5 -17 6 0 6 10 9 23 6 30
-3 9 -5 9 -5 0z"/>
<path d="M1802 6228 c-34 -34 3 -125 67 -162 l34 -20 18 23 c22 27 25 97 6
121 -35 45 -99 64 -125 38z"/>
<path d="M1986 6137 c-12 -9 -20 -31 -23 -63 -5 -47 -3 -52 31 -82 43 -37 91
-42 127 -13 22 17 22 21 10 62 -7 24 -28 58 -46 76 -35 35 -69 42 -99 20z"/>
<path d="M2181 6051 c-20 -37 -12 -55 34 -78 59 -30 65 -29 65 12 0 33 -27 75
-49 75 -5 0 -16 3 -24 6 -9 3 -20 -3 -26 -15z"/>
<path d="M6345 5640 c-3 -6 1 -7 9 -4 18 7 21 14 7 14 -6 0 -13 -4 -16 -10z"/>
<path d="M6910 5566 c0 -2 7 -7 16 -10 8 -3 12 -2 9 4 -6 10 -25 14 -25 6z"/>
<path d="M7070 5466 c0 -2 7 -7 16 -10 8 -3 12 -2 9 4 -6 10 -25 14 -25 6z"/>
<path d="M6858 4743 c6 -2 18 -2 25 0 6 3 1 5 -13 5 -14 0 -19 -2 -12 -5z"/>
<path d="M6405 4700 c-3 -5 -1 -10 4 -10 6 0 11 -9 11 -20 0 -11 4 -20 9 -20
10 0 2 48 -10 55 -4 3 -10 1 -14 -5z"/>
<path d="M7086 5015 c-3 -9 -6 -22 -5 -28 0 -7 5 -1 10 12 5 13 8 26 5 28 -2
2 -6 -3 -10 -12z"/>
<path d="M7250 4795 c0 -8 4 -15 10 -15 5 0 7 7 4 15 -4 8 -8 15 -10 15 -2 0
-4 -7 -4 -15z"/>
<path d="M7178 4783 c7 -3 16 -2 19 1 4 3 -2 6 -13 5 -11 0 -14 -3 -6 -6z"/>
<path d="M7260 4766 c0 -2 7 -7 16 -10 8 -3 12 -2 9 4 -6 10 -25 14 -25 6z"/>
<path d="M6920 3835 c0 -5 5 -17 10 -25 5 -8 10 -10 10 -5 0 6 -5 17 -10 25
-5 8 -10 11 -10 5z"/>
<path d="M6262 3800 c0 -19 2 -27 5 -17 2 9 2 25 0 35 -3 9 -5 1 -5 -18z"/>
<path d="M6640 3794 c0 -6 7 -19 16 -30 14 -18 14 -18 3 6 -14 31 -19 36 -19
24z"/>
<path d="M6272 3740 c0 -14 2 -19 5 -12 2 6 2 18 0 25 -3 6 -5 1 -5 -13z"/>
<path d="M6978 3745 c12 -24 50 -65 59 -65 4 0 -6 15 -23 33 -16 17 -33 37
-38 42 -4 6 -4 1 2 -10z"/>
<path d="M6281 3684 c0 -11 3 -14 6 -6 3 7 2 16 -1 19 -3 4 -6 -2 -5 -13z"/>
<path d="M5098 4233 c7 -3 16 -2 19 1 4 3 -2 6 -13 5 -11 0 -14 -3 -6 -6z"/>
<path d="M4485 4220 c3 -5 16 -10 28 -10 18 0 19 2 7 10 -20 13 -43 13 -35 0z"/>
<path d="M4603 4213 c9 -2 23 -2 30 0 6 3 -1 5 -18 5 -16 0 -22 -2 -12 -5z"/>
<path d="M4470 3776 c-15 -39 -12 -46 6 -13 9 16 13 31 10 34 -3 3 -10 -6 -16
-21z"/>
<path d="M6153 2897 c-10 -13 -27 -26 -38 -31 -16 -6 -17 -9 -5 -17 13 -8 12
-11 -4 -24 -10 -8 -23 -12 -28 -9 -12 7 -6 -19 7 -29 6 -5 -6 -6 -25 -3 -26 5
-30 4 -15 -3 20 -9 20 -10 -1 -10 -11 -1 -29 -10 -39 -21 -10 -11 -25 -20 -33
-20 -12 0 -31 -7 -107 -41 -48 -22 -104 -37 -111 -31 -4 4 -4 2 -1 -4 8 -14
-18 -23 -88 -30 -27 -3 -72 -12 -100 -19 -27 -8 -95 -16 -150 -18 l-100 -5 50
23 c29 14 70 24 98 24 41 1 117 23 117 34 0 6 -108 -13 -207 -36 -51 -11 -89
-25 -86 -31 3 -5 1 -6 -5 -2 -6 4 -57 -3 -114 -15 -138 -29 -358 -32 -471 -5
-42 10 -80 22 -83 27 -3 5 39 9 96 9 113 0 281 16 313 31 14 6 -21 6 -98 2
-308 -20 -571 -2 -697 48 -26 10 -48 17 -48 15 0 -11 236 -108 365 -150 159
-52 516 -72 725 -42 229 34 442 92 682 189 70 28 124 55 121 60 -3 6 -1 7 5 3
6 -4 48 12 93 34 l82 42 -39 39 c-21 21 -39 39 -40 39 -2 0 -11 -10 -21 -23z
m-113 -147 c-8 -5 -19 -10 -25 -10 -5 0 -3 5 5 10 8 5 20 10 25 10 6 0 3 -5
-5 -10z m-393 -146 c-3 -3 -12 -4 -19 -1 -8 3 -5 6 6 6 11 1 17 -2 13 -5z
m-57 -14 c-34 -11 -60 -11 -35 0 11 5 29 8 40 8 16 0 15 -2 -5 -8z m-90 -20
c-36 -12 -60 -12 -60 0 0 6 19 10 43 9 36 -1 38 -2 17 -9z"/>
<path d="M6762 2580 c0 -19 2 -27 5 -17 2 9 2 25 0 35 -3 9 -5 1 -5 -18z"/>
<path d="M5368 2593 c6 -2 18 -2 25 0 6 3 1 5 -13 5 -14 0 -19 -2 -12 -5z"/>
<path d="M6675 2428 c-22 -23 -31 -36 -20 -28 23 18 35 29 54 53 25 31 6 18
-34 -25z"/>
<path d="M5615 2440 c-3 -5 -2 -10 4 -10 5 0 13 5 16 10 3 6 2 10 -4 10 -5 0
-13 -4 -16 -10z"/>
<path d="M5580 2430 c0 -5 5 -10 10 -10 6 0 10 5 10 10 0 6 -4 10 -10 10 -5 0
-10 -4 -10 -10z"/>
<path d="M5360 2389 l-85 -18 70 4 c48 4 64 2 50 -4 -11 -5 -43 -10 -72 -10
-28 -1 -55 -5 -58 -11 -3 -5 -27 -10 -53 -9 -37 0 -43 2 -27 10 17 8 17 9 -5
4 -14 -2 -40 -5 -58 -5 -18 0 -31 -3 -29 -7 3 -5 -23 -7 -56 -6 -52 2 -58 1
-37 -8 31 -14 255 -6 325 11 83 21 120 36 117 50 -2 9 6 11 30 6 23 -4 29 -3
18 4 -19 12 -26 12 -130 -11z"/>
<path d="M4590 2301 c0 -5 19 -11 43 -15 23 -4 53 -9 67 -11 14 -3 -2 4 -35
15 -68 22 -75 23 -75 11z"/>
<path d="M4888 2233 c6 -2 18 -2 25 0 6 3 1 5 -13 5 -14 0 -19 -2 -12 -5z"/>
<path d="M5643 2137 c7 -5 -6 -6 -28 -3 -22 2 -31 2 -20 -1 16 -5 12 -8 -20
-18 -22 -7 -33 -13 -25 -14 8 0 51 10 95 23 77 23 78 24 33 23 -27 -1 -41 -5
-35 -10z"/>
<path d="M6354 2084 c-18 -14 -18 -15 4 -4 12 6 22 13 22 15 0 8 -5 6 -26 -11z"/>
<path d="M5385 2060 c-3 -5 -2 -10 4 -10 5 0 13 5 16 10 3 6 2 10 -4 10 -5 0
-13 -4 -16 -10z"/>
<path d="M5595 1820 c-3 -5 -1 -10 4 -10 6 0 11 5 11 10 0 6 -2 10 -4 10 -3 0
-8 -4 -11 -10z"/>
<path d="M5400 1770 c-13 -8 -12 -10 3 -10 9 0 17 5 17 10 0 12 -1 12 -20 0z"/>
<path d="M4448 1733 c6 -2 18 -2 25 0 6 3 1 5 -13 5 -14 0 -19 -2 -12 -5z"/>
<path d="M5708 4233 c6 -2 10 -8 7 -13 -3 -4 6 -10 19 -12 19 -4 24 -1 23 14
-1 13 -9 18 -32 17 -16 0 -24 -3 -17 -6z"/>
<path d="M2456 2935 c4 -8 8 -15 10 -15 2 0 4 7 4 15 0 8 -4 15 -10 15 -5 0
-7 -7 -4 -15z"/>
<path d="M2500 1821 c0 -6 4 -13 10 -16 6 -3 7 1 4 9 -7 18 -14 21 -14 7z"/>
<path d="M2516 1774 c-4 -9 -4 -19 -1 -22 3 -3 5 0 5 7 0 7 4 9 10 6 6 -3 7 1
4 9 -8 20 -10 20 -18 0z"/>
<path d="M7170 2014 c0 -8 5 -12 10 -9 6 3 10 10 10 16 0 5 -4 9 -10 9 -5 0
-10 -7 -10 -16z"/>
<path d="M4128 1643 c7 -3 16 -2 19 1 4 3 -2 6 -13 5 -11 0 -14 -3 -6 -6z"/>
<path d="M4418 1643 c12 -2 32 -2 45 0 12 2 2 4 -23 4 -25 0 -35 -2 -22 -4z"/>
<path d="M4608 1643 c6 -2 18 -2 25 0 6 3 1 5 -13 5 -14 0 -19 -2 -12 -5z"/>
<path d="M4305 1620 c3 -5 8 -10 11 -10 2 0 4 5 4 10 0 6 -5 10 -11 10 -5 0
-7 -4 -4 -10z"/>
<path d="M4408 1623 c6 -2 18 -2 25 0 6 3 1 5 -13 5 -14 0 -19 -2 -12 -5z"/>
<path d="M4458 1613 c7 -3 16 -2 19 1 4 3 -2 6 -13 5 -11 0 -14 -3 -6 -6z"/>
</g>
</svg>
